<?xml version="1.0" encoding="UTF-8" standalone="no"?>
<!DOCTYPE svg PUBLIC "-//W3C//DTD SVG 1.1//EN" "http://www.w3.org/Graphics/SVG/1.1/DTD/svg11.dtd">
<svg width="100%" height="100%" viewBox="0 0 568 240" version="1.1" xmlns="http://www.w3.org/2000/svg" xmlns:xlink="http://www.w3.org/1999/xlink" xml:space="preserve" xmlns:serif="http://www.serif.com/" style="fill-rule:evenodd;clip-rule:evenodd;stroke-linejoin:round;stroke-miterlimit:2;">
    <g transform="matrix(1,0,0,1,-1,-2)">
        <text x="13.54px" y="62.349px" style="font-family:'Avenir-Black', 'Avenir', sans-serif;font-weight:800;font-size:14px;">data wrangling</text>
    </g>
    <g transform="matrix(1,0,0,1,-1,-2)">
        <text x="179.272px" y="62.349px" style="font-family:'Avenir-Book', 'Avenir';font-size:14px;">tidyverse, data.table <tspan x="411.642px " y="62.349px ">p</tspan>andas, data.table</text>
        <text x="13.54px" y="78.349px" style="font-family:'Avenir-Black', 'Avenir', sans-serif;font-weight:800;font-size:14px;">dataviz</text>
    </g>
    <g transform="matrix(1,0,0,1,-1,-2)">
        <text x="178.278px" y="76.349px" style="font-family:'Avenir-Book', 'Avenir';font-size:14px;">ggplot + extensions <tspan x="381.34px " y="76.349px ">m</tspan>atplotlib, seabor<tspan x="495.895px 503.68px " y="76.349px 76.349px ">n,</tspan> plotnine</text>
        <text x="217.21px" y="92.349px" style="font-family:'Avenir-Book', 'Avenir';font-size:14px;">plotly                                            plotly (+ggplot!)</text>
    </g>
    <g transform="matrix(15.201,13.2064,13.2064,-15.201,407.24,6.3112)">
        <path d="M0.512,0.504C0.47,0.467 0.432,0.427 0.402,0.389C0.312,0.279 0.327,0.224 0.391,0.151L0.474,0.055L0.723,0.272L0.751,0.24L0.408,-0.057C0.337,-0.119 0.311,-0.218 0.363,-0.318C0.423,-0.433 0.472,-0.492 0.583,-0.571C0.665,-0.63 0.752,-0.645 0.825,-0.582L0.911,-0.507L0.812,-0.393C0.741,-0.311 0.749,-0.175 0.832,-0.103L1.08,0.113C1.149,0.172 1.155,0.278 1.094,0.348L0.888,0.586C0.829,0.653 0.728,0.654 0.65,0.607C0.601,0.576 0.554,0.542 0.512,0.504ZM0.443,0.31C0.468,0.332 0.508,0.33 0.531,0.303C0.554,0.277 0.551,0.237 0.526,0.215C0.5,0.193 0.461,0.196 0.438,0.222C0.415,0.249 0.416,0.287 0.443,0.31Z" style="fill:url(#_Linear1);fill-rule:nonzero;"/>
    </g>
    <g transform="matrix(-5.42829,-7.75508,-7.75508,5.42829,428.278,20.3345)">
        <path d="M1.237,-0.996L0.983,-0.818C0.784,-0.679 0.736,-0.394 0.871,-0.202L1.272,0.371C1.381,0.527 1.339,0.753 1.18,0.865L0.631,1.248C0.475,1.358 0.289,1.287 0.136,1.166C-0.045,1.024 -0.177,0.856 -0.267,0.59C-0.325,0.417 -0.343,0.215 -0.174,0.097L0.046,-0.057L0.449,0.518L0.523,0.467L-0.082,-0.397C-0.198,-0.562 -0.126,-0.707 0.008,-0.888C0.145,-1.076 0.319,-1.193 0.592,-1.297C0.786,-1.373 0.967,-1.381 1.085,-1.213L1.237,-0.996ZM0.077,0.3C0.036,0.242 -0.047,0.227 -0.108,0.27C-0.169,0.313 -0.184,0.396 -0.143,0.454C-0.102,0.512 -0.019,0.527 0.042,0.484C0.103,0.441 0.118,0.358 0.077,0.3Z" style="fill:url(#_Linear2);fill-rule:nonzero;"/>
    </g>
    <g transform="matrix(1,0,0,1,-1,-306.855)">
        <path d="M453.815,323.159C453.815,319.601 452.8,317.827 450.767,317.761C449.941,317.699 449.181,317.888 448.417,318.143C447.781,318.332 447.403,318.587 447.21,318.78L447.21,327.159C448.479,327.985 449.621,328.367 450.64,328.301C452.735,328.109 453.815,326.395 453.815,323.159ZM456.292,323.286C456.292,325.064 455.91,326.523 455.022,327.73C454.069,329.065 452.8,329.764 451.087,329.764C449.818,329.825 448.548,329.382 447.214,328.556L447.214,336.176L445.053,335.412L445.053,318.459C445.435,318.016 445.879,317.634 446.388,317.317C447.657,316.557 449.247,316.175 451.022,316.175C452.673,316.175 454.004,316.874 454.895,318.209C455.844,319.667 456.292,321.253 456.292,323.286ZM469.433,328.301C469.433,330.713 469.178,332.364 468.734,333.255C468.225,334.143 467.338,334.907 466.003,335.478C464.861,335.921 463.719,336.176 462.446,336.176L462.064,334.841C463.398,334.652 464.286,334.459 464.795,334.332C465.81,333.95 466.574,333.444 466.952,332.68C467.268,332.109 467.396,330.967 467.396,329.316L467.396,328.745C465.937,329.443 464.348,329.76 462.762,329.76C461.682,329.76 460.729,329.443 459.969,328.745C459.081,328.047 458.634,327.094 458.634,325.952L458.634,317.001L460.79,316.241L460.79,325.257C460.79,326.21 461.107,326.97 461.743,327.48C462.38,327.989 463.14,328.24 464.155,328.24C465.169,328.24 466.188,327.858 467.33,327.098L467.33,316.553L469.487,316.553L469.433,328.301ZM477.813,329.698L477.114,329.698C475.907,329.698 474.957,329.382 474.255,328.811C473.557,328.24 473.241,327.414 473.241,326.399L473.241,317.892L471.782,317.892L471.782,316.553L473.241,316.553L473.241,312.934L475.397,312.174L475.397,316.553L477.809,316.553L477.809,317.888L475.397,317.888L475.397,326.268C475.397,327.094 475.586,327.665 476.034,327.981C476.416,328.236 476.987,328.425 477.813,328.49L477.813,329.698ZM490.892,329.505L488.735,329.505L488.735,321.187C488.735,320.361 488.546,319.601 488.164,319.03C487.72,318.332 487.084,318.016 486.258,318.016C485.243,318.016 484.036,318.525 482.577,319.601L482.577,329.571L480.421,329.571L480.421,309.697L482.577,308.999L482.577,318.016C483.974,317.001 485.436,316.492 487.084,316.492C488.226,316.492 489.117,316.874 489.877,317.634C490.575,318.394 490.957,319.347 490.957,320.493L490.892,329.505ZM502.319,322.777C502.319,321.442 502.065,320.3 501.559,319.412C500.923,318.332 500.035,317.761 498.701,317.699C496.351,317.827 495.143,319.54 495.143,322.777C495.143,324.301 495.398,325.508 495.903,326.523C496.54,327.792 497.489,328.429 498.762,328.429C501.112,328.363 502.319,326.523 502.319,322.777ZM504.669,322.777C504.669,324.682 504.16,326.334 503.211,327.603C502.13,329 500.606,329.76 498.766,329.76C496.86,329.76 495.402,329.061 494.322,327.603C493.369,326.334 492.863,324.744 492.863,322.777C492.863,320.936 493.372,319.412 494.449,318.205C495.591,316.87 496.987,316.237 498.766,316.237C500.545,316.237 502.003,316.874 503.145,318.205C504.16,319.474 504.669,320.998 504.669,322.777ZM517.05,329.505L514.893,329.505L514.893,320.743C514.893,319.79 514.577,319.03 514.006,318.521C513.435,318.012 512.671,317.695 511.656,317.761C510.641,317.761 509.623,318.143 508.736,318.776L508.736,329.632L506.579,329.632L506.579,318.521C507.786,317.634 508.928,316.997 510.009,316.742C511.023,316.488 511.849,316.36 512.613,316.36C513.122,316.36 513.628,316.422 514.071,316.488C514.897,316.677 515.595,317.059 516.105,317.568C516.676,318.139 516.992,318.903 516.992,319.725L517.05,329.505Z" style="fill:rgb(101,101,101);fill-rule:nonzero;"/>
    </g>
    <g transform="matrix(36.935,24.7364,24.7364,-36.935,219.806,2.87652)">
        <path d="M0.655,-0.231C0.464,-0.359 0.24,-0.359 0.155,-0.231C0.069,-0.103 0.155,0.103 0.345,0.231C0.536,0.359 0.76,0.359 0.845,0.231C0.931,0.103 0.845,-0.103 0.655,-0.231ZM0.459,0.176C0.314,0.079 0.244,-0.07 0.302,-0.158C0.36,-0.245 0.525,-0.237 0.67,-0.14C0.815,-0.043 0.89,0.077 0.816,0.187C0.743,0.296 0.603,0.273 0.459,0.176Z" style="fill:url(#_Linear3);"/>
    </g>
    <g transform="matrix(20.3859,20.802,20.802,-20.3859,233.966,5.88002)">
        <path d="M0.592,0.092C0.592,0.092 0.627,0.111 0.65,0.119C0.659,0.122 0.674,0.126 0.688,0.125C0.701,0.125 0.712,0.121 0.712,0.121L1,0.051L0.829,-0.124L0.596,-0.055C0.596,-0.055 0.55,-0.044 0.532,-0.046C0.517,-0.048 0.511,-0.049 0.502,-0.057L0.462,-0.099L0.661,-0.294L0.51,-0.449L-0,0.051L0.304,0.361C0.304,0.361 0.445,0.5 0.579,0.368C0.714,0.236 0.592,0.092 0.592,0.092ZM0.355,0.192L0.263,0.098L0.35,0.013L0.442,0.107C0.442,0.107 0.484,0.15 0.44,0.193C0.395,0.237 0.355,0.192 0.355,0.192Z" style="fill:url(#_Linear4);"/>
    </g>
    <g transform="matrix(1,0,0,1,6.14051,10.4376)">
        <text x="19.206px" y="221.903px" style="font-family:'Avenir-Black', 'Avenir', sans-serif;font-weight:800;font-size:14px;">dynamic apps</text>
    </g>
    <g transform="matrix(1,0,0,1,2.7723,-2.83993)">
        <text x="17.7px" y="197.839px" style="font-family:'Avenir-Black', 'Avenir', sans-serif;font-weight:800;font-size:14px;">interpr<tspan x="63.083px 71.12px " y="197.839px 197.839px ">et</tspan>ability</text>
    </g>
    <g transform="matrix(1,0,0,1,24.755,-12.6312)">
        <text x="211.257px" y="244.972px" style="font-family:'Avenir-Book', 'Avenir';font-size:14px;">shiny</text>
    </g>
    <g transform="matrix(1,0,0,1,3.65414,-9.75227)">
        <text x="396.807px" y="242.793px" style="font-family:'Avenir-Book', 'Avenir';font-size:14px;">bokeh, dash, str<tspan x="496.144px 503.929px " y="242.793px 242.793px ">ea</tspan>mlit</text>
    </g>
    <g transform="matrix(1,0,0,1,434.91,194.663)">
        <text x="0px" y="0px" style="font-family:'Avenir-Book', 'Avenir';font-size:14px;">LIME, shap</text>
    </g>
    <g transform="matrix(1,0,0,1,8.88208,1.89081)">
        <text x="214.08px" y="193.808px" style="font-family:'Avenir-Book', 'Avenir';font-size:14px;">LIME, iml</text>
    </g>
    <g transform="matrix(1,0,0,1,-145.346,-1.05037)">
        <text x="519.07px" y="166.4px" style="font-family:'Avenir-Book', 'Avenir';font-size:14px;">xgboost, lightGBM, scikit-lear<tspan x="704.424px " y="166.4px ">n</tspan></text>
    </g>
    <g transform="matrix(1,0,0,1,-153.573,5.97955)">
        <text x="298.737px" y="159.37px" style="font-family:'Avenir-Book', 'Avenir';font-size:14px;">randomFor<tspan x="367.712px 375.498px " y="159.37px 159.37px ">es</tspan>t, xgboost, lightGBM</text>
    </g>
    <g transform="matrix(1,0,0,1,5.09531,4.95126)">
        <text x="21.134px" y="161.994px" style="font-family:'Avenir-Black', 'Avenir', sans-serif;font-weight:800;font-size:14px;">tr<tspan x="32.281px 40.318px " y="161.994px 161.994px ">ee</tspan> methods</text>
    </g>
    <g transform="matrix(1,0,0,1,-186.262,-141.206)">
        <text x="576.713px" y="286.204px" style="font-family:'Avenir-Book', 'Avenir';font-size:14px;">tensorﬂow<tspan x="641.016px 644.91px " y="286.204px 286.204px ">, </tspan>keras, pytor<tspan x="721.666px 728.416px " y="286.204px 286.204px ">ch</tspan></text>
    </g>
    <g transform="matrix(1,0,0,1,-172.183,-141.231)">
        <text x="352.549px" y="287.265px" style="font-family:'Avenir-Book', 'Avenir';font-size:14px;">tensorﬂow<tspan x="416.852px 420.746px " y="287.265px 287.265px ">, </tspan>keras, tor<tspan x="482.197px 488.946px " y="287.265px 287.265px ">ch</tspan></text>
    </g>
    <g transform="matrix(1,0,0,1,-80.6758,-145.324)">
        <text x="81.489px" y="291.918px" style="font-family:'Avenir-Black', 'Avenir', sans-serif;font-weight:800;font-size:14px;">neural networks / DL</text>
    </g>
    <g transform="matrix(1,0,0,1,-197.614,-175.322)">
        <text x="384.652px" y="296.903px" style="font-family:'Avenir-Book', 'Avenir';font-size:14px;">tidymodels (ex-car<tspan x="499.011px 506.797px " y="296.903px 296.903px ">et</tspan>)</text>
    </g>
    <g transform="matrix(1,0,0,1,-40.1938,-173.44)">
        <text x="476.957px" y="296.617px" style="font-family:'Avenir-Book', 'Avenir';font-size:14px;">scikit-lear<tspan x="535.77px " y="296.617px ">n</tspan></text>
    </g>
    <g transform="matrix(1,0,0,1,-60.2964,-146.325)">
        <text x="64.206px" y="267.906px" style="font-family:'Avenir-Black', 'Avenir', sans-serif;font-weight:800;font-size:14px;">general purpose ML</text>
    </g>
    <defs>
        <linearGradient id="_Linear1" x1="0" y1="0" x2="1" y2="0" gradientUnits="userSpaceOnUse" gradientTransform="matrix(1,5.55112e-17,5.55112e-17,-1,0,0.00889422)"><stop offset="0" style="stop-color:rgb(92,160,213);stop-opacity:1"/><stop offset="1" style="stop-color:rgb(49,106,153);stop-opacity:1"/></linearGradient>
        <linearGradient id="_Linear2" x1="0" y1="0" x2="1" y2="0" gradientUnits="userSpaceOnUse" gradientTransform="matrix(1,0,0,-1,0,-0.02385)"><stop offset="0" style="stop-color:rgb(252,212,62);stop-opacity:1"/><stop offset="1" style="stop-color:rgb(253,233,117);stop-opacity:1"/></linearGradient>
        <linearGradient id="_Linear3" x1="0" y1="0" x2="1" y2="0" gradientUnits="userSpaceOnUse" gradientTransform="matrix(1,0,0,-1,0,-7.4764e-06)"><stop offset="0" style="stop-color:rgb(203,206,208);stop-opacity:1"/><stop offset="1" style="stop-color:rgb(132,131,139);stop-opacity:1"/></linearGradient>
        <linearGradient id="_Linear4" x1="0" y1="0" x2="1" y2="0" gradientUnits="userSpaceOnUse" gradientTransform="matrix(1,5.55112e-17,5.55112e-17,-1,0,0.0508301)"><stop offset="0" style="stop-color:rgb(39,109,195);stop-opacity:1"/><stop offset="1" style="stop-color:rgb(25,92,170);stop-opacity:1"/></linearGradient>
    </defs>
</svg>
