<?xml version="1.0" encoding="UTF-8" standalone="no"?>
<!DOCTYPE svg PUBLIC "-//W3C//DTD SVG 1.1//EN" "http://www.w3.org/Graphics/SVG/1.1/DTD/svg11.dtd">
<svg width="100%" height="100%" viewBox="0 0 1737 650" version="1.1" xmlns="http://www.w3.org/2000/svg" xmlns:xlink="http://www.w3.org/1999/xlink" xml:space="preserve" xmlns:serif="http://www.serif.com/" style="fill-rule:evenodd;clip-rule:evenodd;stroke-linejoin:round;stroke-miterlimit:2;">
    <g transform="matrix(1,0,0,1,-194.188,91.7943)">
        <text x="444.231px" y="95.34px" style="font-family:'Avenir-Heavy', 'Avenir', sans-serif;font-weight:900;font-size:54.167px;fill:rgb(88,142,94);">Sustainability</text>
    </g>
    <g transform="matrix(0.624108,-0.804626,1.08937,0.844969,-334.944,494.899)">
        <path d="M316.607,298.744L316.607,305.976L303.724,296.461L316.607,286.945L316.607,294.177L653.99,294.177L653.99,286.945L666.873,296.461L653.99,305.976L653.99,298.744L316.607,298.744Z" style="fill:rgb(116,115,115);"/>
    </g>
    <g transform="matrix(0.643607,0.856974,-1.10238,0.827917,573.781,-298.132)">
        <path d="M315.965,298.744L315.965,305.976L303.724,296.461L315.965,286.945L315.965,294.177L654.633,294.177L654.633,286.945L666.873,296.461L654.633,305.976L654.633,298.744L315.965,298.744Z" style="fill:rgb(116,115,115);"/>
    </g>
    <g transform="matrix(1,0,0,1,-417.642,451.251)">
        <text x="431.925px" y="95.34px" style="font-family:'Avenir-Heavy', 'Avenir', sans-serif;font-weight:900;font-size:54.167px;fill:rgb(217,50,50);">A<tspan x="470.058px 498.171px " y="95.34px 95.34px ">ve</tspan>rage</text>
        <text x="448.012px" y="149.507px" style="font-family:'Avenir-Heavy', 'Avenir', sans-serif;font-weight:900;font-size:54.167px;fill:rgb(217,50,50);">r<tspan x="468.108px 499.2px " y="149.507px 149.507px ">et</tspan>ur<tspan x="573.408px 604.5px " y="149.507px 149.507px ">ns</tspan></text>
    </g>
    <g transform="matrix(1,0,0,1,199.078,491.506)">
        <text x="444.231px" y="95.34px" style="font-family:'Avenir-Heavy', 'Avenir', sans-serif;font-weight:900;font-size:66.667px;fill:rgb(69,122,171);">Risk</text>
    </g>
    <g transform="matrix(0.671754,0,0,1,-73.7323,106.049)">
        <path d="M469.764,467.344L469.764,477.858L449.194,464.04L469.764,450.223L469.764,460.736L1030.53,460.736L1030.53,450.223L1051.1,464.04L1030.53,477.858L1030.53,467.344L469.764,467.344Z" style="fill:rgb(116,115,115);"/>
    </g>
    <g transform="matrix(1,0,0,1,-284.433,295.816)">
        <text x="575.24px" y="308.839px" style="font-family:'Avenir-Roman', 'Avenir', sans-serif;font-size:33.333px;">traditional ﬁnance</text>
        <text x="590.357px" y="342.172px" style="font-family:'Avenir-Roman', 'Avenir', sans-serif;font-size:33.333px;">ef<tspan x="618.79px 636.69px " y="342.172px 342.172px ">ﬁc</tspan>ient fr<tspan x="740.457px 760.257px " y="342.172px 342.172px ">on</tspan>tier</text>
    </g>
    <g transform="matrix(1,0,0,1,-248.175,57.3643)">
        <text x="286.779px" y="206.188px" style="font-family:'Avenir-Roman', 'Avenir', sans-serif;font-size:41.667px;">~ESG fr<tspan x="433.445px 458.195px " y="206.188px 206.188px ">on</tspan>tier</text>
        <text x="270.174px" y="247.855px" style="font-family:'Avenir-Roman', 'Avenir', sans-serif;font-size:41.667px;">ﬁnancial cost of</text>
        <text x="319.987px" y="289.521px" style="font-family:'Avenir-Roman', 'Avenir', sans-serif;font-size:41.667px;">gr<tspan x="359.362px 382.529px " y="289.521px 289.521px ">ee</tspan>nness</text>
        <text x="354.491px" y="322.855px" style="font-family:'Avenir-Roman', 'Avenir', sans-serif;font-size:33.333px;fill:rgb(121,121,122);">(r<tspan x="374.891px 394.691px " y="322.855px 322.855px ">ou</tspan>ghly</text>
        <text x="378.574px" y="356.188px" style="font-family:'Avenir-Roman', 'Avenir', sans-serif;font-size:33.333px;fill:rgb(121,121,122);">zer<tspan x="423.041px 442.841px " y="356.188px 356.188px ">o)</tspan></text>
    </g>
    <g transform="matrix(1,0,0,1,244.691,60.6523)">
        <text x="307.279px" y="206.188px" style="font-family:'Avenir-Roman', 'Avenir', sans-serif;font-size:41.667px;">r<tspan x="321.195px 344.362px " y="206.188px 206.188px ">es</tspan>ilience &amp;</text>
        <text x="337.404px" y="247.855px" style="font-family:'Avenir-Roman', 'Avenir', sans-serif;font-size:41.667px;">hedging</text>
        <text x="355.883px" y="289.521px" style="font-family:'Avenir-Roman', 'Avenir', sans-serif;font-size:41.667px;">power</text>
        <text x="351.724px" y="322.855px" style="font-family:'Avenir-Roman', 'Avenir', sans-serif;font-size:33.333px;fill:rgb(158,159,159);">(unclear)</text>
    </g>
    <g transform="matrix(1,0,0,1,759.6,86.0932)">
        <text x="444.231px" y="95.34px" style="font-family:'Avenir-Heavy', 'Avenir', sans-serif;font-weight:900;font-size:54.167px;fill:rgb(88,142,94);">Sustainability</text>
    </g>
    <g transform="matrix(0.624108,-0.804626,1.08937,0.844969,615.844,489.197)">
        <path d="M316.607,298.744L316.607,305.976L303.724,296.461L316.607,286.945L316.607,294.177L653.99,294.177L653.99,286.945L666.873,296.461L653.99,305.976L653.99,298.744L316.607,298.744Z" style="fill:rgb(116,115,115);"/>
    </g>
    <g transform="matrix(0.643607,0.856974,-1.10238,0.827917,1524.57,-303.833)">
        <path d="M315.965,298.744L315.965,305.976L303.724,296.461L315.965,286.945L315.965,294.177L654.633,294.177L654.633,286.945L666.873,296.461L654.633,305.976L654.633,298.744L315.965,298.744Z" style="fill:rgb(116,115,115);"/>
    </g>
    <g transform="matrix(1,0,0,1,538.146,445.55)">
        <text x="431.925px" y="95.34px" style="font-family:'Avenir-Heavy', 'Avenir', sans-serif;font-weight:900;font-size:54.167px;fill:rgb(217,50,50);">A<tspan x="470.058px 498.171px " y="95.34px 95.34px ">ve</tspan>rage</text>
        <text x="448.012px" y="149.507px" style="font-family:'Avenir-Heavy', 'Avenir', sans-serif;font-weight:900;font-size:54.167px;fill:rgb(217,50,50);">r<tspan x="468.108px 499.2px " y="149.507px 149.507px ">et</tspan>ur<tspan x="573.408px 604.5px " y="149.507px 149.507px ">ns</tspan></text>
    </g>
    <g transform="matrix(1,0,0,1,1148.87,485.805)">
        <text x="444.231px" y="95.34px" style="font-family:'Avenir-Heavy', 'Avenir', sans-serif;font-weight:900;font-size:66.667px;fill:rgb(69,122,171);">Risk</text>
    </g>
    <g transform="matrix(0.671754,0,0,1,877.055,100.348)">
        <path d="M469.764,467.344L469.764,477.858L449.194,464.04L469.764,450.223L469.764,460.736L1030.53,460.736L1030.53,450.223L1051.1,464.04L1030.53,477.858L1030.53,467.344L469.764,467.344Z" style="fill:rgb(116,115,115);"/>
    </g>
    <g transform="matrix(1,0,0,1,624.788,294.601)">
        <text x="580.297px" y="308.839px" style="font-family:'Avenir-Roman', 'Avenir', sans-serif;font-size:33.333px;">risk aversion estimation</text>
        <text x="598.197px" y="342.172px" style="font-family:'Avenir-Roman', 'Avenir', sans-serif;font-size:33.333px;fill:rgb(201,201,201);">r<tspan x="609.33px 627.863px " y="342.172px 342.172px ">ev</tspan>ealed pr<tspan x="767.43px 785.963px " y="342.172px 342.172px ">ef</tspan>er<tspan x="826.13px 844.663px " y="342.172px 342.172px ">en</tspan>ces</text>
    </g>
    <g transform="matrix(1,0,0,1,695.409,69.004)">
        <text x="333.208px" y="206.188px" style="font-family:'Avenir-Roman', 'Avenir', sans-serif;font-size:33.333px;fill:rgb(121,121,122);">warm glow</text>
        <text x="314.374px" y="239.521px" style="font-family:'Avenir-Roman', 'Avenir', sans-serif;font-size:33.333px;fill:rgb(121,121,122);">willingness to</text>
        <text x="311.208px" y="272.855px" style="font-family:'Avenir-Roman', 'Avenir', sans-serif;font-size:33.333px;fill:rgb(121,121,122);">r<tspan x="322.341px 340.874px " y="272.855px 272.855px ">en</tspan>ounce to $</text>
    </g>
    <g transform="matrix(1,0,0,1,-176.302,40.1897)">
        <text x="326.584px" y="26.263px" style="font-family:'Avenir-Heavy', 'Avenir', sans-serif;font-weight:900;font-size:62.5px;">FINANCIAL DA<tspan x="767.522px " y="26.263px ">T</tspan>A</text>
    </g>
    <g transform="matrix(1,0,0,1,714.512,40.3421)">
        <text x="326.584px" y="26.263px" style="font-family:'Avenir-Heavy', 'Avenir', sans-serif;font-weight:900;font-size:62.5px;">PREFERENCES</text>
    </g>
    <g transform="matrix(1,0,0,1,-33.0433,10.1231)">
        <text x="1531.93px" y="26.747px" style="font-family:'Avenir-Heavy', 'Avenir', sans-serif;font-weight:900;font-size:39.583px;">surveys</text>
        <text x="1531.93px" y="60.08px" style="font-family:'Avenir-Heavy', 'Avenir', sans-serif;font-weight:900;font-size:39.583px;">experiments</text>
    </g>
    <g transform="matrix(1,0,0,1,47.7399,90.8398)">
        <text x="1508.27px" y="293.201px" style="font-family:'Avenir-Roman', 'Avenir', sans-serif;font-size:100px;">?</text>
    </g>
    <g transform="matrix(1,0,0,1,-85.3217,-130.883)">
        <text x="1566.65px" y="388.031px" style="font-family:'Avenir-Roman', 'Avenir', sans-serif;font-size:33.333px;fill:rgb(153,154,154);">unknown</text>
        <text x="1580.89px" y="421.365px" style="font-family:'Avenir-Roman', 'Avenir', sans-serif;font-size:33.333px;fill:rgb(153,154,154);">territory</text>
    </g>
</svg>
