<?xml version="1.0" encoding="UTF-8" standalone="no"?>
<!DOCTYPE svg PUBLIC "-//W3C//DTD SVG 1.1//EN" "http://www.w3.org/Graphics/SVG/1.1/DTD/svg11.dtd">
<svg width="100%" height="100%" viewBox="0 0 624 275" version="1.1" xmlns="http://www.w3.org/2000/svg" xmlns:xlink="http://www.w3.org/1999/xlink" xml:space="preserve" xmlns:serif="http://www.serif.com/" style="fill-rule:evenodd;clip-rule:evenodd;stroke-linejoin:round;stroke-miterlimit:10;">
    <g transform="matrix(1,0,0,1,0,-16.43)">
        <rect x="46.24" y="20.41" width="253.6" height="250.61" style="fill:rgb(235,235,235);"/>
    </g>
    <g transform="matrix(1,0,0,1,0,203.02)">
        <path d="M46.24,35.99L299.84,35.99" style="fill:none;fill-rule:nonzero;stroke:white;stroke-width:0.53px;"/>
    </g>
    <g transform="matrix(1,0,0,1,0,97.84)">
        <path d="M46.24,88.58L299.84,88.58" style="fill:none;fill-rule:nonzero;stroke:white;stroke-width:0.53px;"/>
    </g>
    <g transform="matrix(1,0,0,1,0,-7.32)">
        <path d="M46.24,141.16L299.84,141.16" style="fill:none;fill-rule:nonzero;stroke:white;stroke-width:0.53px;"/>
    </g>
    <g transform="matrix(1,0,0,1,0,-112.5)">
        <path d="M46.24,193.75L299.84,193.75" style="fill:none;fill-rule:nonzero;stroke:white;stroke-width:0.53px;"/>
    </g>
    <g transform="matrix(1,0,0,1,0,-217.68)">
        <path d="M46.24,246.34L299.84,246.34" style="fill:none;fill-rule:nonzero;stroke:white;stroke-width:0.53px;"/>
    </g>
    <g transform="matrix(0,-1,-1,0,215.945,199.515)">
        <path d="M-55.075,145.715L195.535,145.715" style="fill:none;fill-rule:nonzero;stroke:white;stroke-width:0.53px;"/>
    </g>
    <g transform="matrix(0,-1,-1,0,278.255,261.825)">
        <path d="M7.235,145.715L257.845,145.715" style="fill:none;fill-rule:nonzero;stroke:white;stroke-width:0.53px;"/>
    </g>
    <g transform="matrix(0,-1,-1,0,340.565,324.135)">
        <path d="M69.545,145.715L320.155,145.715" style="fill:none;fill-rule:nonzero;stroke:white;stroke-width:0.53px;"/>
    </g>
    <g transform="matrix(1,0,0,1,0,150.44)">
        <path d="M46.24,62.28L299.84,62.28" style="fill:none;fill-rule:nonzero;stroke:white;stroke-width:1.07px;"/>
    </g>
    <g transform="matrix(1,0,0,1,0,45.26)">
        <path d="M46.24,114.87L299.84,114.87" style="fill:none;fill-rule:nonzero;stroke:white;stroke-width:1.07px;"/>
    </g>
    <g transform="matrix(1,0,0,1,0,-59.92)">
        <path d="M46.24,167.46L299.84,167.46" style="fill:none;fill-rule:nonzero;stroke:white;stroke-width:1.07px;"/>
    </g>
    <g transform="matrix(1,0,0,1,0,-165.1)">
        <path d="M46.24,220.05L299.84,220.05" style="fill:none;fill-rule:nonzero;stroke:white;stroke-width:1.07px;"/>
    </g>
    <g transform="matrix(0,-1,-1,0,247.095,230.665)">
        <path d="M-23.925,145.715L226.685,145.715" style="fill:none;fill-rule:nonzero;stroke:white;stroke-width:1.07px;"/>
    </g>
    <g transform="matrix(0,-1,-1,0,309.405,292.975)">
        <path d="M38.385,145.715L288.995,145.715" style="fill:none;fill-rule:nonzero;stroke:white;stroke-width:1.07px;"/>
    </g>
    <g transform="matrix(0,-1,-1,0,371.715,355.285)">
        <path d="M100.695,145.715L351.305,145.715" style="fill:none;fill-rule:nonzero;stroke:white;stroke-width:1.07px;"/>
    </g>
    <g transform="matrix(0,-1,-1,0,434.025,417.595)">
        <path d="M163.005,145.715L413.615,145.715" style="fill:none;fill-rule:nonzero;stroke:white;stroke-width:1.07px;"/>
    </g>
    <g transform="matrix(1,0,0,1,0,-148.639)">
        <path d="M57.77,218.839L64,214.299L70.23,211.139L76.46,210.289L101.38,208.219L163.69,205.569L226,204.8" style="fill:none;fill-rule:nonzero;stroke:rgb(248,118,109);stroke-width:1.07px;"/>
    </g>
    <g transform="matrix(1,0,0,1,0,-158.41)">
        <path d="M57.77,238.42L64,225.98L70.23,217.23L76.46,212.34L101.38,199.89L163.804,197.7L226,194.99" style="fill:none;fill-rule:nonzero;stroke:rgb(163,165,0);stroke-width:1.07px;"/>
    </g>
    <g transform="matrix(1,0,0,1,0,-145.015)">
        <path d="M57.77,247.445L64,226.825L70.23,211.625L76.46,207.375L101.38,190.355L163.69,175.685L226,172.57" style="fill:none;fill-rule:nonzero;stroke:rgb(0,191,125);stroke-width:1.07px;"/>
    </g>
    <g transform="matrix(1,0,0,1,0,-83.86)">
        <path d="M57.77,245.47L64,212.99L70.23,189.52L76.46,176.99L101.38,143.12L163.69,121.24L226,113.39" style="fill:none;fill-rule:nonzero;stroke:rgb(0,176,246);stroke-width:1.07px;"/>
    </g>
    <g transform="matrix(1,0,0,1,0,19.469)">
        <path d="M57.77,223.731L64,178.241L70.23,149.511L76.46,132.611L101.38,83.181L163.69,46.251L226,31.8" style="fill:none;fill-rule:nonzero;stroke:rgb(231,107,243);stroke-width:1.07px;"/>
    </g>
    <g transform="matrix(0,1,1,0,67.665,-233.955)">
        <path d="M288.305,218.155C286.945,218.155 285.825,219.275 285.825,220.645C285.825,222.015 286.945,223.135 288.305,223.135C289.675,223.135 290.795,222.015 290.795,220.645C290.795,219.275 289.675,218.155 288.305,218.155" style="fill:rgb(248,118,109);fill-rule:nonzero;stroke:rgb(248,118,109);stroke-width:0.71px;stroke-linecap:round;"/>
    </g>
    <g transform="matrix(0,1,1,0,46.365,-255.255)">
        <path d="M288.315,239.455C286.945,239.455 285.825,240.575 285.825,241.945C285.825,243.315 286.945,244.435 288.315,244.435C289.675,244.435 290.795,243.315 290.795,241.945C290.795,240.575 289.675,239.455 288.315,239.455" style="fill:rgb(163,165,0);fill-rule:nonzero;stroke:rgb(163,165,0);stroke-width:0.71px;stroke-linecap:round;"/>
    </g>
    <g transform="matrix(0,1,1,0,32.55,-269.07)">
        <path d="M288.31,253.27C286.94,253.27 285.82,254.39 285.82,255.76C285.82,257.13 286.94,258.25 288.31,258.25C289.68,258.25 290.8,257.13 290.8,255.76C290.8,254.39 289.68,253.27 288.31,253.27" style="fill:rgb(0,191,125);fill-rule:nonzero;stroke:rgb(0,191,125);stroke-width:0.71px;stroke-linecap:round;"/>
    </g>
    <g transform="matrix(0,1,1,0,28.68,-272.94)">
        <path d="M288.31,257.14C286.94,257.14 285.82,258.26 285.82,259.63C285.82,261 286.94,262.12 288.31,262.12C289.68,262.12 290.8,261 290.8,259.63C290.8,258.26 289.68,257.14 288.31,257.14" style="fill:rgb(0,176,246);fill-rule:nonzero;stroke:rgb(0,176,246);stroke-width:0.71px;stroke-linecap:round;"/>
    </g>
    <g transform="matrix(0,1,1,0,35.445,-266.175)">
        <path d="M288.305,250.375C286.945,250.375 285.825,251.495 285.825,252.865C285.825,254.235 286.945,255.355 288.305,255.355C289.675,255.355 290.795,254.235 290.795,252.865C290.795,251.495 289.675,250.375 288.305,250.375" style="fill:rgb(231,107,243);fill-rule:nonzero;stroke:rgb(231,107,243);stroke-width:0.71px;stroke-linecap:round;"/>
    </g>
    <g transform="matrix(1,0,0,1,0,150.44)">
        <path d="M43.5,62.28L46.24,62.28" style="fill:none;fill-rule:nonzero;stroke:rgb(51,51,51);stroke-width:1.07px;"/>
    </g>
    <g transform="matrix(1,0,0,1,0,45.26)">
        <path d="M43.5,114.87L46.24,114.87" style="fill:none;fill-rule:nonzero;stroke:rgb(51,51,51);stroke-width:1.07px;"/>
    </g>
    <g transform="matrix(1,0,0,1,0,-59.92)">
        <path d="M43.5,167.46L46.24,167.46" style="fill:none;fill-rule:nonzero;stroke:rgb(51,51,51);stroke-width:1.07px;"/>
    </g>
    <g transform="matrix(1,0,0,1,0,-165.1)">
        <path d="M43.5,220.05L46.24,220.05" style="fill:none;fill-rule:nonzero;stroke:rgb(51,51,51);stroke-width:1.07px;"/>
    </g>
    <g transform="matrix(0,-1,-1,0,120.42,357.34)">
        <path d="M100.01,19.04L102.75,19.04" style="fill:none;fill-rule:nonzero;stroke:rgb(51,51,51);stroke-width:1.07px;"/>
    </g>
    <g transform="matrix(0,-1,-1,0,182.73,419.65)">
        <path d="M162.32,19.04L165.06,19.04" style="fill:none;fill-rule:nonzero;stroke:rgb(51,51,51);stroke-width:1.07px;"/>
    </g>
    <g transform="matrix(0,-1,-1,0,245.04,481.96)">
        <path d="M224.63,19.04L227.37,19.04" style="fill:none;fill-rule:nonzero;stroke:rgb(51,51,51);stroke-width:1.07px;"/>
    </g>
    <g transform="matrix(0,-1,-1,0,307.35,544.27)">
        <path d="M286.94,19.04L289.68,19.04" style="fill:none;fill-rule:nonzero;stroke:rgb(51,51,51);stroke-width:1.07px;"/>
    </g>
    <g transform="matrix(1,0,0,1,0,31.322)">
        <rect x="223.598" y="65.259" width="43.73" height="113.16" style="fill:white;"/>
    </g>
    <g transform="matrix(1,0,0,1,0,-16.5198)">
        <rect x="350.422" y="20.455" width="263.86" height="250.61" style="fill:rgb(235,235,235);"/>
    </g>
    <g transform="matrix(1,0,0,1,0,194.49)">
        <path d="M350.422,40.255L614.282,40.255" style="fill:none;fill-rule:nonzero;stroke:white;stroke-width:0.53px;"/>
    </g>
    <g transform="matrix(1,0,0,1,0,110.29)">
        <path d="M350.422,82.355L614.282,82.355" style="fill:none;fill-rule:nonzero;stroke:white;stroke-width:0.53px;"/>
    </g>
    <g transform="matrix(1,0,0,1,0,26.09)">
        <path d="M350.422,124.455L614.282,124.455" style="fill:none;fill-rule:nonzero;stroke:white;stroke-width:0.53px;"/>
    </g>
    <g transform="matrix(1,0,0,1,0,-58.13)">
        <path d="M350.422,166.565L614.282,166.565" style="fill:none;fill-rule:nonzero;stroke:white;stroke-width:0.53px;"/>
    </g>
    <g transform="matrix(1,0,0,1,0,-142.33)">
        <path d="M350.422,208.665L614.282,208.665" style="fill:none;fill-rule:nonzero;stroke:white;stroke-width:0.53px;"/>
    </g>
    <g transform="matrix(1,0,0,1,0,-226.53)">
        <path d="M350.422,250.765L614.282,250.765" style="fill:none;fill-rule:nonzero;stroke:white;stroke-width:0.53px;"/>
    </g>
    <g transform="matrix(0,-1,-1,0,509.282,492.762)">
        <path d="M238.217,145.76L488.827,145.76" style="fill:none;fill-rule:nonzero;stroke:white;stroke-width:0.53px;"/>
    </g>
    <g transform="matrix(0,-1,-1,0,564.812,548.292)">
        <path d="M293.747,145.76L544.357,145.76" style="fill:none;fill-rule:nonzero;stroke:white;stroke-width:0.53px;"/>
    </g>
    <g transform="matrix(0,-1,-1,0,620.332,603.812)">
        <path d="M349.267,145.76L599.877,145.76" style="fill:none;fill-rule:nonzero;stroke:white;stroke-width:0.53px;"/>
    </g>
    <g transform="matrix(0,-1,-1,0,675.862,659.342)">
        <path d="M404.797,145.76L655.407,145.76" style="fill:none;fill-rule:nonzero;stroke:white;stroke-width:0.53px;"/>
    </g>
    <g transform="matrix(1,0,0,1,0,152.39)">
        <path d="M350.422,61.305L614.282,61.305" style="fill:none;fill-rule:nonzero;stroke:white;stroke-width:1.07px;"/>
    </g>
    <g transform="matrix(1,0,0,1,0,68.19)">
        <path d="M350.422,103.405L614.282,103.405" style="fill:none;fill-rule:nonzero;stroke:white;stroke-width:1.07px;"/>
    </g>
    <g transform="matrix(1,0,0,1,0,-16.03)">
        <path d="M350.422,145.515L614.282,145.515" style="fill:none;fill-rule:nonzero;stroke:white;stroke-width:1.07px;"/>
    </g>
    <g transform="matrix(1,0,0,1,0,-100.23)">
        <path d="M350.422,187.615L614.282,187.615" style="fill:none;fill-rule:nonzero;stroke:white;stroke-width:1.07px;"/>
    </g>
    <g transform="matrix(1,0,0,1,0,-184.43)">
        <path d="M350.422,229.715L614.282,229.715" style="fill:none;fill-rule:nonzero;stroke:white;stroke-width:1.07px;"/>
    </g>
    <g transform="matrix(0,-1,-1,0,537.052,520.532)">
        <path d="M265.987,145.76L516.597,145.76" style="fill:none;fill-rule:nonzero;stroke:white;stroke-width:1.07px;"/>
    </g>
    <g transform="matrix(0,-1,-1,0,592.572,576.052)">
        <path d="M321.507,145.76L572.117,145.76" style="fill:none;fill-rule:nonzero;stroke:white;stroke-width:1.07px;"/>
    </g>
    <g transform="matrix(0,-1,-1,0,648.102,631.582)">
        <path d="M377.037,145.76L627.647,145.76" style="fill:none;fill-rule:nonzero;stroke:white;stroke-width:1.07px;"/>
    </g>
    <g transform="matrix(0,-1,-1,0,703.622,687.102)">
        <path d="M432.557,145.76L683.167,145.76" style="fill:none;fill-rule:nonzero;stroke:white;stroke-width:1.07px;"/>
    </g>
    <g transform="matrix(0,-1,-1,0,759.152,742.632)">
        <path d="M488.087,145.76L738.697,145.76" style="fill:none;fill-rule:nonzero;stroke:white;stroke-width:1.07px;"/>
    </g>
    <g transform="matrix(0.956274,0.292473,0.292473,-0.956274,-10.7695,135.804)">
        <path d="M366.077,79.022L373.052,79.022L405.525,86.737L447.918,100.006L554.057,132.667" style="fill:none;fill-rule:nonzero;stroke:rgb(248,118,109);stroke-width:1.07px;"/>
    </g>
    <text x="292.188px" y="271.418px" style="font-family:'ArialMT', 'Arial', sans-serif;font-size:8px;fill:rgb(79,75,75);">o</text>
    <g>
        <text x="282.854px" y="269.5px" style="font-family:'Helvetica';font-size:12px;fill:rgb(77,77,77);">R</text>
        <text x="291.952px" y="263.925px" style="font-family:'ArialMT', 'Arial', sans-serif;font-size:7px;fill:rgb(79,75,75);">2</text>
    </g>
    <text x="18.54px" y="215.95px" style="font-family:'Helvetica';font-size:9px;fill:rgb(77,77,77);">-0.15</text>
    <text x="18.54px" y="163.36px" style="font-family:'Helvetica';font-size:9px;fill:rgb(77,77,77);">-0.10</text>
    <text x="18.54px" y="110.77px" style="font-family:'Helvetica';font-size:9px;fill:rgb(77,77,77);">-0.05</text>
    <text x="23.79px" y="58.18px" style="font-family:'Helvetica';font-size:9px;fill:rgb(77,77,77);">0.00</text>
    <text x="93.88px" y="265.98px" style="font-family:'Helvetica';font-size:9px;fill:rgb(77,77,77);">500</text>
    <text x="153.68px" y="265.98px" style="font-family:'Helvetica';font-size:9px;fill:rgb(77,77,77);">1000</text>
    <g>
        <text x="215.99px" y="265.98px" style="font-family:'Helvetica';font-size:9px;fill:rgb(77,77,77);">1500</text>
        <text x="190.765px" y="269.552px" style="font-family:'Helvetica-Bold', 'Helvetica';font-weight:700;font-size:13px;">T</text>
    </g>
    <text x="474.325px" y="269.005px" style="font-family:'Helvetica-Bold', 'Helvetica';font-weight:700;font-size:13px;">T</text>
    <g transform="matrix(0,-1,1,0,0,0)">
        <text x="-168.898px" y="11.662px" style="font-family:'Helvetica-Bold', 'Helvetica';font-weight:700;font-size:11px;">R squared</text>
    </g>
    <text x="332.982px" y="216.925px" style="font-family:'Helvetica';font-size:9px;fill:rgb(77,77,77);">0.1</text>
    <text x="332.982px" y="174.825px" style="font-family:'Helvetica';font-size:9px;fill:rgb(77,77,77);">0.2</text>
    <text x="332.982px" y="132.725px" style="font-family:'Helvetica';font-size:9px;fill:rgb(77,77,77);">0.3</text>
    <text x="332.982px" y="90.615px" style="font-family:'Helvetica';font-size:9px;fill:rgb(77,77,77);">0.4</text>
    <text x="332.982px" y="48.515px" style="font-family:'Helvetica';font-size:9px;fill:rgb(77,77,77);">0.5</text>
    <g transform="matrix(0.462966,0.886376,0.886376,-0.462966,162.447,-184.149)">
        <path d="M401.323,15.982L415.73,15.982L444.935,38.308L467.538,76.616L518.889,175.08" style="fill:none;fill-rule:nonzero;stroke:rgb(163,165,0);stroke-width:1.07px;"/>
    </g>
    <g transform="matrix(0.288101,0.9576,0.9576,-0.288101,233.832,-235.315)">
        <path d="M391.528,16.479L414.68,16.479L468.173,35.17L492.653,74.192L528.746,179.301" style="fill:none;fill-rule:nonzero;stroke:rgb(0,191,125);stroke-width:1.07px;"/>
    </g>
    <g transform="matrix(0.260407,0.965499,0.965499,-0.260407,223.435,-258.793)">
        <path d="M359.216,47.058L384.829,47.058L465.472,59.808L513.651,92.82L561.058,195.052" style="fill:none;fill-rule:nonzero;stroke:rgb(0,176,246);stroke-width:1.07px;"/>
    </g>
    <g transform="matrix(0.326036,0.945357,0.945357,-0.326036,162.588,-265.169)">
        <path d="M330.317,97.454L350.775,97.454L430.287,105.267L499.203,128.487L589.957,214.656" style="fill:none;fill-rule:nonzero;stroke:rgb(231,107,243);stroke-width:1.07px;"/>
    </g>
    <g transform="matrix(0,1,1,0,496.94,-431.764)">
        <path d="M601.847,102.422C600.487,102.422 599.367,103.542 599.367,104.912C599.367,106.282 600.487,107.402 601.847,107.402C603.217,107.402 604.337,106.282 604.337,104.912C604.337,103.542 603.217,102.422 601.847,102.422" style="fill:rgb(248,118,109);fill-rule:nonzero;stroke:rgb(248,118,109);stroke-width:0.71px;stroke-linecap:round;"/>
    </g>
    <g transform="matrix(0,1,1,0,521.223,-407.827)">
        <path d="M602.02,78.312C600.66,78.312 599.54,79.432 599.54,80.802C599.54,82.172 600.66,83.292 602.02,83.292C603.39,83.292 604.51,82.172 604.51,80.802C604.51,79.432 603.39,78.312 602.02,78.312" style="fill:rgb(163,165,0);fill-rule:nonzero;stroke:rgb(163,165,0);stroke-width:0.71px;stroke-linecap:round;"/>
    </g>
    <g transform="matrix(0,1,1,0,545.509,-383.675)">
        <path d="M602.097,54.093C600.727,54.093 599.607,55.213 599.607,56.583C599.607,57.953 600.727,59.073 602.097,59.073C603.457,59.073 604.577,57.953 604.577,56.583C604.577,55.213 603.457,54.093 602.097,54.093" style="fill:rgb(0,191,125);fill-rule:nonzero;stroke:rgb(0,191,125);stroke-width:0.71px;stroke-linecap:round;"/>
    </g>
    <g transform="matrix(0,1,1,0,561.301,-368.157)">
        <path d="M602.234,38.438C600.864,38.438 599.744,39.558 599.744,40.928C599.744,42.298 600.864,43.418 602.234,43.418C603.594,43.418 604.714,42.298 604.714,40.928C604.714,39.558 603.594,38.438 602.234,38.438" style="fill:rgb(0,176,246);fill-rule:nonzero;stroke:rgb(0,176,246);stroke-width:0.71px;stroke-linecap:round;"/>
    </g>
    <g transform="matrix(0,1,1,0,570.437,-359.127)">
        <path d="M602.282,29.355C600.912,29.355 599.792,30.475 599.792,31.845C599.792,33.215 600.912,34.335 602.282,34.335C603.652,34.335 604.772,33.215 604.772,31.845C604.772,30.475 603.652,29.355 602.282,29.355" style="fill:rgb(231,107,243);fill-rule:nonzero;stroke:rgb(231,107,243);stroke-width:0.71px;stroke-linecap:round;"/>
    </g>
    <g transform="matrix(1,0,0,1,0,152.39)">
        <path d="M347.682,61.305L350.422,61.305" style="fill:none;fill-rule:nonzero;stroke:rgb(51,51,51);stroke-width:1.07px;"/>
    </g>
    <g transform="matrix(1,0,0,1,0,68.19)">
        <path d="M347.682,103.405L350.422,103.405" style="fill:none;fill-rule:nonzero;stroke:rgb(51,51,51);stroke-width:1.07px;"/>
    </g>
    <g transform="matrix(1,0,0,1,0,-16.03)">
        <path d="M347.682,145.515L350.422,145.515" style="fill:none;fill-rule:nonzero;stroke:rgb(51,51,51);stroke-width:1.07px;"/>
    </g>
    <g transform="matrix(1,0,0,1,0,-100.23)">
        <path d="M347.682,187.615L350.422,187.615" style="fill:none;fill-rule:nonzero;stroke:rgb(51,51,51);stroke-width:1.07px;"/>
    </g>
    <g transform="matrix(1,0,0,1,0,-184.43)">
        <path d="M347.682,229.715L350.422,229.715" style="fill:none;fill-rule:nonzero;stroke:rgb(51,51,51);stroke-width:1.07px;"/>
    </g>
    <g transform="matrix(0,-1,-1,0,410.377,647.207)">
        <path d="M389.922,19.085L392.662,19.085" style="fill:none;fill-rule:nonzero;stroke:rgb(51,51,51);stroke-width:1.07px;"/>
    </g>
    <g transform="matrix(0,-1,-1,0,465.897,702.727)">
        <path d="M445.442,19.085L448.182,19.085" style="fill:none;fill-rule:nonzero;stroke:rgb(51,51,51);stroke-width:1.07px;"/>
    </g>
    <g transform="matrix(0,-1,-1,0,521.427,758.257)">
        <path d="M500.972,19.085L503.712,19.085" style="fill:none;fill-rule:nonzero;stroke:rgb(51,51,51);stroke-width:1.07px;"/>
    </g>
    <g transform="matrix(0,-1,-1,0,576.947,813.777)">
        <path d="M556.492,19.085L559.232,19.085" style="fill:none;fill-rule:nonzero;stroke:rgb(51,51,51);stroke-width:1.07px;"/>
    </g>
    <g transform="matrix(0,-1,-1,0,621.477,858.307)">
        <path d="M601.022,19.085L603.762,19.085" style="fill:none;fill-rule:nonzero;stroke:rgb(51,51,51);stroke-width:1.07px;"/>
    </g>
    <g transform="matrix(1,0,0,1,0,-232.393)">
        <rect x="393.183" y="241.3" width="140.555" height="24.793" style="fill:white;"/>
    </g>
    <g transform="matrix(1,0,0,1,0,-241.885)">
        <rect x="51.008" y="246.894" width="135.27" height="23.097" style="fill:white;"/>
    </g>
    <g transform="matrix(1,0,0,1,0,-21.998)">
        <rect x="229.078" y="139.859" width="17.28" height="17.28" style="fill:rgb(242,242,242);"/>
    </g>
    <g transform="matrix(1,0,0,1,0,-21.998)">
        <path d="M230.808,148.499L244.638,148.499" style="fill:none;fill-rule:nonzero;stroke:rgb(248,118,109);stroke-width:1.07px;"/>
    </g>
    <g transform="matrix(0,1,1,0,89.224,-111.222)">
        <path d="M237.723,146.014C236.353,146.014 235.233,147.134 235.233,148.494C235.233,149.864 236.353,150.984 237.723,150.984C239.093,150.984 240.213,149.864 240.213,148.494C240.213,147.134 239.093,146.014 237.723,146.014" style="fill:rgb(248,118,109);fill-rule:nonzero;stroke:rgb(248,118,109);stroke-width:0.71px;stroke-linecap:round;"/>
    </g>
    <g transform="matrix(1,0,0,1,0,12.562)">
        <rect x="229.078" y="122.579" width="17.28" height="17.28" style="fill:rgb(242,242,242);"/>
    </g>
    <g transform="matrix(1,0,0,1,0,12.562)">
        <path d="M230.808,131.219L244.638,131.219" style="fill:none;fill-rule:nonzero;stroke:rgb(163,165,0);stroke-width:1.07px;"/>
    </g>
    <g transform="matrix(0,1,1,0,106.504,-93.942)">
        <path d="M237.723,128.734C236.353,128.734 235.233,129.854 235.233,131.214C235.233,132.584 236.353,133.704 237.723,133.704C239.093,133.704 240.213,132.584 240.213,131.214C240.213,129.854 239.093,128.734 237.723,128.734" style="fill:rgb(163,165,0);fill-rule:nonzero;stroke:rgb(163,165,0);stroke-width:0.71px;stroke-linecap:round;"/>
    </g>
    <g transform="matrix(1,0,0,1,0,47.122)">
        <rect x="229.078" y="105.299" width="17.28" height="17.28" style="fill:rgb(242,242,242);"/>
    </g>
    <g transform="matrix(1,0,0,1,0,47.122)">
        <path d="M230.808,113.939L244.638,113.939" style="fill:none;fill-rule:nonzero;stroke:rgb(0,191,125);stroke-width:1.07px;"/>
    </g>
    <g transform="matrix(0,1,1,0,123.784,-76.662)">
        <path d="M237.723,111.454C236.353,111.454 235.233,112.574 235.233,113.934C235.233,115.304 236.353,116.424 237.723,116.424C239.093,116.424 240.213,115.304 240.213,113.934C240.213,112.574 239.093,111.454 237.723,111.454" style="fill:rgb(0,191,125);fill-rule:nonzero;stroke:rgb(0,191,125);stroke-width:0.71px;stroke-linecap:round;"/>
    </g>
    <g transform="matrix(1,0,0,1,0,81.682)">
        <rect x="229.078" y="88.019" width="17.28" height="17.28" style="fill:rgb(242,242,242);"/>
    </g>
    <g transform="matrix(1,0,0,1,0,81.682)">
        <path d="M230.808,96.659L244.638,96.659" style="fill:none;fill-rule:nonzero;stroke:rgb(0,176,246);stroke-width:1.07px;"/>
    </g>
    <g transform="matrix(0,1,1,0,141.064,-59.382)">
        <path d="M237.723,94.174C236.353,94.174 235.233,95.294 235.233,96.654C235.233,98.024 236.353,99.144 237.723,99.144C239.093,99.144 240.213,98.024 240.213,96.654C240.213,95.294 239.093,94.174 237.723,94.174" style="fill:rgb(0,176,246);fill-rule:nonzero;stroke:rgb(0,176,246);stroke-width:0.71px;stroke-linecap:round;"/>
    </g>
    <g transform="matrix(1,0,0,1,0,116.242)">
        <rect x="229.078" y="70.739" width="17.28" height="17.28" style="fill:rgb(242,242,242);"/>
    </g>
    <g transform="matrix(1,0,0,1,0,116.242)">
        <path d="M230.808,79.379L244.638,79.379" style="fill:none;fill-rule:nonzero;stroke:rgb(231,107,243);stroke-width:1.07px;"/>
    </g>
    <g transform="matrix(0,1,1,0,158.344,-42.102)">
        <path d="M237.723,76.894C236.353,76.894 235.233,78.014 235.233,79.374C235.233,80.744 236.353,81.864 237.723,81.864C239.093,81.864 240.213,80.744 240.213,79.374C240.213,78.014 239.093,76.894 237.723,76.894" style="fill:rgb(231,107,243);fill-rule:nonzero;stroke:rgb(231,107,243);stroke-width:0.71px;stroke-linecap:round;"/>
    </g>
    <g transform="matrix(1,0,0,1,0,-127.046)">
        <rect x="539.579" y="144.443" width="43.73" height="113.16" style="fill:white;"/>
    </g>
    <text x="383.782px" y="265.935px" style="font-family:'Helvetica';font-size:9px;fill:rgb(77,77,77);">250</text>
    <text x="439.302px" y="265.935px" style="font-family:'Helvetica';font-size:9px;fill:rgb(77,77,77);">500</text>
    <text x="494.832px" y="265.935px" style="font-family:'Helvetica';font-size:9px;fill:rgb(77,77,77);">750</text>
    <text x="547.852px" y="265.935px" style="font-family:'Helvetica';font-size:9px;fill:rgb(77,77,77);">1000</text>
    <g transform="matrix(0,-1,1,0,0,0)">
        <text x="-162.968px" y="325.463px" style="font-family:'Helvetica-Bold', 'Helvetica';font-weight:700;font-size:11px;">R squared</text>
    </g>
    <g>
        <text x="397.593px" y="19.052px" style="font-family:'Arial-BoldMT', 'Arial', sans-serif;font-weight:700;font-size:10px;">high initial persistence case</text>
        <text x="397.593px" y="29.052px" style="font-family:'Achilles';font-size:14px;">p</text>
        <text x="404.075px" y="29.052px" style="font-family:'Helvetica';font-size:8px;">y</text>
        <text x="410.853px" y="29.052px" style="font-family:'ArialMT', 'Arial', sans-serif;font-size:10px;">= 1 - 0.1/k</text>
    </g>
    <g>
        <text x="53.981px" y="13.678px" style="font-family:'Arial-BoldMT', 'Arial', sans-serif;font-weight:700;font-size:10px;">low initial persistence case</text>
        <text x="53.981px" y="23.678px" style="font-family:'Achilles';font-size:14px;">p</text>
        <text x="60.462px" y="23.678px" style="font-family:'Helvetica';font-size:8px;">y</text>
        <text x="67.24px" y="23.678px" style="font-family:'ArialMT', 'Arial', sans-serif;font-size:10px;">= 1 - 0.9/k</text>
    </g>
    <g>
        <text x="252.504px" y="113.415px" style="font-family:'Helvetica-Bold', 'Helvetica';font-weight:700;font-size:11px;">k</text>
        <text x="251.838px" y="129.735px" style="font-family:'Helvetica';font-size:9px;">1</text>
        <text x="251.838px" y="147.015px" style="font-family:'Helvetica';font-size:9px;">3</text>
        <text x="251.838px" y="164.295px" style="font-family:'Helvetica';font-size:9px;">6</text>
        <text x="251.838px" y="181.575px" style="font-family:'Helvetica';font-size:9px;">12</text>
        <text x="251.838px" y="198.855px" style="font-family:'Helvetica';font-size:9px;">24</text>
    </g>
    <g>
        <text x="567.484px" y="34.231px" style="font-family:'Helvetica-Bold', 'Helvetica';font-weight:700;font-size:11px;">k</text>
        <text x="566.819px" y="50.551px" style="font-family:'Helvetica';font-size:9px;">1</text>
        <text x="566.819px" y="67.831px" style="font-family:'Helvetica';font-size:9px;">3</text>
        <text x="566.819px" y="85.111px" style="font-family:'Helvetica';font-size:9px;">6</text>
        <text x="566.819px" y="102.391px" style="font-family:'Helvetica';font-size:9px;">12</text>
        <text x="566.819px" y="119.671px" style="font-family:'Helvetica';font-size:9px;">24</text>
    </g>
    <text x="605.962px" y="271.858px" style="font-family:'ArialMT', 'Arial', sans-serif;font-size:8px;fill:rgb(79,75,75);">o</text>
    <g>
        <text x="596.628px" y="269.94px" style="font-family:'Helvetica';font-size:12px;fill:rgb(77,77,77);">R</text>
        <text x="605.727px" y="264.364px" style="font-family:'ArialMT', 'Arial', sans-serif;font-size:7px;fill:rgb(79,75,75);">2</text>
    </g>
    <g transform="matrix(1,0,0,1,0,-180.366)">
        <rect x="544.059" y="219.043" width="17.28" height="17.28" style="fill:rgb(242,242,242);"/>
    </g>
    <g transform="matrix(1,0,0,1,0,-180.366)">
        <path d="M545.789,227.683L559.619,227.683" style="fill:none;fill-rule:nonzero;stroke:rgb(248,118,109);stroke-width:1.07px;"/>
    </g>
    <g transform="matrix(0,1,1,0,325.021,-505.387)">
        <path d="M552.704,225.198C551.334,225.198 550.214,226.318 550.214,227.678C550.214,229.048 551.334,230.168 552.704,230.168C554.074,230.168 555.194,229.048 555.194,227.678C555.194,226.318 554.074,225.198 552.704,225.198" style="fill:rgb(248,118,109);fill-rule:nonzero;stroke:rgb(248,118,109);stroke-width:0.71px;stroke-linecap:round;"/>
    </g>
    <g transform="matrix(1,0,0,1,0,-145.806)">
        <rect x="544.059" y="201.763" width="17.28" height="17.28" style="fill:rgb(242,242,242);"/>
    </g>
    <g transform="matrix(1,0,0,1,0,-145.806)">
        <path d="M545.789,210.403L559.619,210.403" style="fill:none;fill-rule:nonzero;stroke:rgb(163,165,0);stroke-width:1.07px;"/>
    </g>
    <g transform="matrix(0,1,1,0,342.301,-488.107)">
        <path d="M552.704,207.918C551.334,207.918 550.214,209.038 550.214,210.398C550.214,211.768 551.334,212.888 552.704,212.888C554.074,212.888 555.194,211.768 555.194,210.398C555.194,209.038 554.074,207.918 552.704,207.918" style="fill:rgb(163,165,0);fill-rule:nonzero;stroke:rgb(163,165,0);stroke-width:0.71px;stroke-linecap:round;"/>
    </g>
    <g transform="matrix(1,0,0,1,0,-111.246)">
        <rect x="544.059" y="184.483" width="17.28" height="17.28" style="fill:rgb(242,242,242);"/>
    </g>
    <g transform="matrix(1,0,0,1,0,-111.246)">
        <path d="M545.789,193.123L559.619,193.123" style="fill:none;fill-rule:nonzero;stroke:rgb(0,191,125);stroke-width:1.07px;"/>
    </g>
    <g transform="matrix(0,1,1,0,359.581,-470.827)">
        <path d="M552.704,190.638C551.334,190.638 550.214,191.758 550.214,193.118C550.214,194.488 551.334,195.608 552.704,195.608C554.074,195.608 555.194,194.488 555.194,193.118C555.194,191.758 554.074,190.638 552.704,190.638" style="fill:rgb(0,191,125);fill-rule:nonzero;stroke:rgb(0,191,125);stroke-width:0.71px;stroke-linecap:round;"/>
    </g>
    <g transform="matrix(1,0,0,1,0,-76.686)">
        <rect x="544.059" y="167.203" width="17.28" height="17.28" style="fill:rgb(242,242,242);"/>
    </g>
    <g transform="matrix(1,0,0,1,0,-76.686)">
        <path d="M545.789,175.843L559.619,175.843" style="fill:none;fill-rule:nonzero;stroke:rgb(0,176,246);stroke-width:1.07px;"/>
    </g>
    <g transform="matrix(0,1,1,0,376.861,-453.547)">
        <path d="M552.704,173.358C551.334,173.358 550.214,174.478 550.214,175.838C550.214,177.208 551.334,178.328 552.704,178.328C554.074,178.328 555.194,177.208 555.194,175.838C555.194,174.478 554.074,173.358 552.704,173.358" style="fill:rgb(0,176,246);fill-rule:nonzero;stroke:rgb(0,176,246);stroke-width:0.71px;stroke-linecap:round;"/>
    </g>
    <g transform="matrix(1,0,0,1,0,-42.126)">
        <rect x="544.059" y="149.923" width="17.28" height="17.28" style="fill:rgb(242,242,242);"/>
    </g>
    <g transform="matrix(1,0,0,1,0,-42.126)">
        <path d="M545.789,158.563L559.619,158.563" style="fill:none;fill-rule:nonzero;stroke:rgb(231,107,243);stroke-width:1.07px;"/>
    </g>
    <g transform="matrix(0,1,1,0,394.141,-436.267)">
        <path d="M552.704,156.078C551.334,156.078 550.214,157.198 550.214,158.558C550.214,159.928 551.334,161.048 552.704,161.048C554.074,161.048 555.194,159.928 555.194,158.558C555.194,157.198 554.074,156.078 552.704,156.078" style="fill:rgb(231,107,243);fill-rule:nonzero;stroke:rgb(231,107,243);stroke-width:0.71px;stroke-linecap:round;"/>
    </g>
</svg>
