<?xml version="1.0" encoding="UTF-8" standalone="no"?>
<!DOCTYPE svg PUBLIC "-//W3C//DTD SVG 1.1//EN" "http://www.w3.org/Graphics/SVG/1.1/DTD/svg11.dtd">
<svg width="100%" height="100%" viewBox="0 0 415 180" version="1.1" xmlns="http://www.w3.org/2000/svg" xmlns:xlink="http://www.w3.org/1999/xlink" xml:space="preserve" xmlns:serif="http://www.serif.com/" style="fill-rule:evenodd;clip-rule:evenodd;stroke-linejoin:round;stroke-miterlimit:10;">
    <g transform="matrix(1,0,0,1,0,-24.82)">
        <rect x="39.116" y="27.59" width="112.143" height="149.64" style="fill:rgb(235,235,235);"/>
    </g>
    <g transform="matrix(1,0,0,1,0,103.34)">
        <path d="M39.116,38.33L151.259,38.33" style="fill:none;fill-rule:nonzero;stroke:white;stroke-width:0.53px;"/>
    </g>
    <g transform="matrix(1,0,0,1,0,24.62)">
        <path d="M39.116,77.69L151.259,77.69" style="fill:none;fill-rule:nonzero;stroke:white;stroke-width:0.53px;"/>
    </g>
    <g transform="matrix(1,0,0,1,0,-54.1)">
        <path d="M39.116,117.05L151.259,117.05" style="fill:none;fill-rule:nonzero;stroke:white;stroke-width:0.53px;"/>
    </g>
    <g transform="matrix(1,0,0,1,0,-132.82)">
        <path d="M39.116,156.41L151.259,156.41" style="fill:none;fill-rule:nonzero;stroke:white;stroke-width:0.53px;"/>
    </g>
    <g transform="matrix(0,-1,-1,0,153.271,128.451)">
        <path d="M-23.959,102.41L125.681,102.41" style="fill:none;fill-rule:nonzero;stroke:white;stroke-width:0.53px;"/>
    </g>
    <g transform="matrix(0,-1,-1,0,175.439,150.619)">
        <path d="M-1.791,102.41L147.849,102.41" style="fill:none;fill-rule:nonzero;stroke:white;stroke-width:0.53px;"/>
    </g>
    <g transform="matrix(0,-1,-1,0,197.598,172.778)">
        <path d="M20.368,102.41L170.008,102.41" style="fill:none;fill-rule:nonzero;stroke:white;stroke-width:0.53px;"/>
    </g>
    <g transform="matrix(0,-1,-1,0,219.756,194.936)">
        <path d="M42.526,102.41L192.166,102.41" style="fill:none;fill-rule:nonzero;stroke:white;stroke-width:0.53px;"/>
    </g>
    <g transform="matrix(0,-1,-1,0,241.925,217.105)">
        <path d="M64.695,102.41L214.335,102.41" style="fill:none;fill-rule:nonzero;stroke:white;stroke-width:0.53px;"/>
    </g>
    <g transform="matrix(1,0,0,1,0,63.98)">
        <path d="M39.116,58.01L151.259,58.01" style="fill:none;fill-rule:nonzero;stroke:white;stroke-width:1.07px;"/>
    </g>
    <g transform="matrix(1,0,0,1,0,-14.74)">
        <path d="M39.116,97.37L151.259,97.37" style="fill:none;fill-rule:nonzero;stroke:white;stroke-width:1.07px;"/>
    </g>
    <g transform="matrix(1,0,0,1,0,-93.46)">
        <path d="M39.116,136.73L151.259,136.73" style="fill:none;fill-rule:nonzero;stroke:white;stroke-width:1.07px;"/>
    </g>
    <g transform="matrix(1,0,0,1,0,-172.2)">
        <path d="M39.116,176.1L151.259,176.1" style="fill:none;fill-rule:nonzero;stroke:white;stroke-width:1.07px;"/>
    </g>
    <g transform="matrix(0,-1,-1,0,142.192,117.372)">
        <path d="M-35.038,102.41L114.602,102.41" style="fill:none;fill-rule:nonzero;stroke:white;stroke-width:1.07px;"/>
    </g>
    <g transform="matrix(0,-1,-1,0,164.351,139.531)">
        <path d="M-12.879,102.41L136.761,102.41" style="fill:none;fill-rule:nonzero;stroke:white;stroke-width:1.07px;"/>
    </g>
    <g transform="matrix(0,-1,-1,0,186.518,161.698)">
        <path d="M9.288,102.41L158.928,102.41" style="fill:none;fill-rule:nonzero;stroke:white;stroke-width:1.07px;"/>
    </g>
    <g transform="matrix(0,-1,-1,0,208.677,183.857)">
        <path d="M31.447,102.41L181.087,102.41" style="fill:none;fill-rule:nonzero;stroke:white;stroke-width:1.07px;"/>
    </g>
    <g transform="matrix(0,-1,-1,0,230.845,206.025)">
        <path d="M53.615,102.41L203.255,102.41" style="fill:none;fill-rule:nonzero;stroke:white;stroke-width:1.07px;"/>
    </g>
    <g transform="matrix(0,-1,-1,0,253.004,228.184)">
        <path d="M75.774,102.41L225.414,102.41" style="fill:none;fill-rule:nonzero;stroke:white;stroke-width:1.07px;"/>
    </g>
    <text x="40.708px" y="146.35px" style="font-family:'LucidaGrande', 'Lucida Grande', sans-serif;font-weight:500;font-size:9.85px;stroke:black;stroke-width:0.71px;stroke-linecap:round;">●</text>
    <text x="49.575px" y="57.71px" style="font-family:'LucidaGrande', 'Lucida Grande', sans-serif;font-weight:500;font-size:9.85px;stroke:black;stroke-width:0.71px;stroke-linecap:round;">●</text>
    <text x="62.867px" y="31.57px" style="font-family:'LucidaGrande', 'Lucida Grande', sans-serif;font-weight:500;font-size:9.85px;stroke:black;stroke-width:0.71px;stroke-linecap:round;">●</text>
    <text x="89.468px" y="18.82px" style="font-family:'LucidaGrande', 'Lucida Grande', sans-serif;font-weight:500;font-size:9.85px;stroke:black;stroke-width:0.71px;stroke-linecap:round;">●</text>
    <text x="142.653px" y="12.99px" style="font-family:'LucidaGrande', 'Lucida Grande', sans-serif;font-weight:500;font-size:9.85px;stroke:black;stroke-width:0.71px;stroke-linecap:round;">●</text>
    <text x="16.37px" y="125.22px" style="font-family:'Helvetica';font-size:9px;fill:rgb(77,77,77);">0.25</text>
    <text x="16.37px" y="85.86px" style="font-family:'Helvetica';font-size:9px;fill:rgb(77,77,77);">0.50</text>
    <text x="16.37px" y="46.5px" style="font-family:'Helvetica';font-size:9px;fill:rgb(77,77,77);">0.75</text>
    <text x="16.37px" y="7.14px" style="font-family:'Helvetica';font-size:9px;fill:rgb(77,77,77);">1.00</text>
    <text x="37.166px" y="163.567px" style="font-family:'Helvetica';font-size:9px;fill:rgb(77,77,77);">0</text>
    <text x="59.535px" y="163.567px" style="font-family:'Helvetica';font-size:9px;fill:rgb(77,77,77);">5 <tspan x="79.427px " y="163.567px ">1</tspan>0 <tspan x="100.379px " y="163.567px ">1</tspan>5 <tspan x="122.852px " y="163.567px ">2</tspan>0 <tspan x="144.477px " y="163.567px ">2</tspan>5</text>
    <g transform="matrix(0,-1,1,0,0,0)">
        <text x="-124.84px" y="9.45px" style="font-family:'Helvetica-Bold', 'Helvetica';font-weight:700;font-size:11px;">A</text>
        <text x="-117.228px" y="9.45px" style="font-family:'Helvetica-Bold', 'Helvetica';font-weight:700;font-size:11px;">utoregression</text>
        <text x="-40.812px" y="9.45px" style="font-family:'Symbol';font-size:11px;">ρ</text>
        <text x="-34.774px" y="11.5px" style="font-family:'Helvetica-Bold', 'Helvetica';font-weight:700;font-size:8px;">y</text>
    </g>
    <text x="170.664px" y="127.948px" style="font-family:'Helvetica';font-size:10px;fill:rgb(77,77,77);">-0.9</text>
    <text x="170.664px" y="90.48px" style="font-family:'Helvetica';font-size:10px;fill:rgb(77,77,77);">-0.6</text>
    <text x="170.664px" y="52.013px" style="font-family:'Helvetica';font-size:10px;fill:rgb(77,77,77);">-0.3</text>
    <text x="174.41px" y="12.545px" style="font-family:'Helvetica';font-size:10px;fill:rgb(77,77,77);">0.0</text>
    <text x="189.274px" y="169.939px" style="font-family:'Helvetica';font-size:9px;fill:rgb(77,77,77);">0</text>
    <text x="226.984px" y="169.939px" style="font-family:'Helvetica';font-size:9px;fill:rgb(77,77,77);">5</text>
    <text x="263.394px" y="169.939px" style="font-family:'Helvetica';font-size:9px;fill:rgb(77,77,77);">10</text>
    <text x="302.054px" y="169.939px" style="font-family:'Helvetica';font-size:9px;fill:rgb(77,77,77);">15</text>
    <text x="340.253px" y="169.939px" style="font-family:'Helvetica';font-size:9px;fill:rgb(77,77,77);">20</text>
    <g>
        <text x="378.963px" y="169.939px" style="font-family:'Helvetica';font-size:9px;fill:rgb(77,77,77);">25</text>
        <text x="273.994px" y="176.261px" style="font-family:'Helvetica-Bold', 'Helvetica';font-weight:700;font-size:9px;">Lag (k)</text>
    </g>
    <g transform="matrix(0,-1,1,0,0,0)">
        <text x="-102.477px" y="167.011px" style="font-family:'Helvetica-Bold', 'Helvetica';font-weight:700;font-size:11px;">R squared</text>
    </g>
    <g transform="matrix(1,0,0,1,0,-24.58)">
        <path d="M44.215,170.19L45.232,143.69L46.257,125.54L47.273,112.33L48.289,102.29L49.314,94.39L50.331,88.02L51.347,82.78L52.372,78.38L53.388,74.64L54.405,71.43L55.43,68.63L56.446,66.17L57.471,64L58.487,62.06L59.504,60.33L60.529,58.76L61.545,57.34L62.561,56.05L63.586,54.87L64.603,53.79L65.619,52.79L66.644,51.87L67.66,51.01L68.685,50.22L69.702,49.48L70.718,48.79L71.743,48.14L72.759,47.53L73.775,46.96L74.801,46.42L75.817,45.91L76.833,45.43L77.858,44.98L78.875,44.55L79.9,44.14L80.916,43.75L81.932,43.38L82.957,43.03L83.974,42.7L84.99,42.38L86.015,42.07L87.031,41.78L88.047,41.5L89.073,41.23L90.089,40.97L91.114,40.72L92.13,40.48L93.147,40.25L94.172,40.03L95.188,39.82L96.204,39.62L97.229,39.42L99.262,39.04L100.287,38.87L101.303,38.69L102.328,38.53L104.361,38.21L105.386,38.06L106.402,37.91L107.419,37.77L108.444,37.63L110.476,37.37L111.501,37.24L112.517,37.12L113.542,37L114.559,36.88L115.576,36.77L116.601,36.66L117.617,36.55L118.633,36.45L119.658,36.35L121.69,36.15L122.715,36.06L123.732,35.97L124.757,35.88L126.789,35.7L127.815,35.62L129.848,35.46L130.873,35.38L131.889,35.3L132.905,35.23L133.93,35.16L134.946,35.08L135.971,35.01L136.987,34.95L138.004,34.88L139.029,34.81L141.061,34.69L142.087,34.62L143.103,34.56L144.128,34.5L145.144,34.45L146.161,34.39" style="fill:none;fill-rule:nonzero;stroke:black;stroke-width:1.07px;stroke-dasharray:4.27,4.27;"/>
    </g>
    <g transform="matrix(1,0,0,1,0,63.98)">
        <path d="M36.08,58.01L39.116,58.01" style="fill:none;fill-rule:nonzero;stroke:rgb(51,51,51);stroke-width:1.07px;"/>
    </g>
    <g transform="matrix(1,0,0,1,0,-14.74)">
        <path d="M36.08,97.37L39.116,97.37" style="fill:none;fill-rule:nonzero;stroke:rgb(51,51,51);stroke-width:1.07px;"/>
    </g>
    <g transform="matrix(1,0,0,1,0,-93.46)">
        <path d="M36.08,136.73L39.116,136.73" style="fill:none;fill-rule:nonzero;stroke:rgb(51,51,51);stroke-width:1.07px;"/>
    </g>
    <g transform="matrix(1,0,0,1,0,-172.2)">
        <path d="M36.08,176.1L39.116,176.1" style="fill:none;fill-rule:nonzero;stroke:rgb(51,51,51);stroke-width:1.07px;"/>
    </g>
    <g transform="matrix(0,-1,-1,0,66.0018,193.562)">
        <path d="M38.412,26.22L41.152,26.22" style="fill:none;fill-rule:nonzero;stroke:rgb(51,51,51);stroke-width:1.07px;"/>
    </g>
    <g transform="matrix(0,-1,-1,0,88.1606,215.721)">
        <path d="M60.571,26.22L63.311,26.22" style="fill:none;fill-rule:nonzero;stroke:rgb(51,51,51);stroke-width:1.07px;"/>
    </g>
    <g transform="matrix(0,-1,-1,0,110.328,237.888)">
        <path d="M82.738,26.22L85.479,26.22" style="fill:none;fill-rule:nonzero;stroke:rgb(51,51,51);stroke-width:1.07px;"/>
    </g>
    <g transform="matrix(0,-1,-1,0,132.487,260.047)">
        <path d="M104.897,26.22L107.637,26.22" style="fill:none;fill-rule:nonzero;stroke:rgb(51,51,51);stroke-width:1.07px;"/>
    </g>
    <g transform="matrix(0,-1,-1,0,154.655,282.215)">
        <path d="M127.065,26.22L129.805,26.22" style="fill:none;fill-rule:nonzero;stroke:rgb(51,51,51);stroke-width:1.07px;"/>
    </g>
    <g transform="matrix(0,-1,-1,0,176.814,304.374)">
        <path d="M149.224,26.22L151.964,26.22" style="fill:none;fill-rule:nonzero;stroke:rgb(51,51,51);stroke-width:1.07px;"/>
    </g>
    <g transform="matrix(1,0,0,1,0,-14.8434)">
        <rect x="190.795" y="19.729" width="194.49" height="155.386" style="fill:rgb(235,235,235);"/>
    </g>
    <g transform="matrix(1,0,0,1,0,108.597)">
        <path d="M190.795,35.701L385.285,35.701" style="fill:none;fill-rule:nonzero;stroke:white;stroke-width:0.53px;"/>
    </g>
    <g transform="matrix(1,0,0,1,0,31.6622)">
        <path d="M190.795,74.169L385.285,74.169" style="fill:none;fill-rule:nonzero;stroke:white;stroke-width:0.53px;"/>
    </g>
    <g transform="matrix(1,0,0,1,0,-45.272)">
        <path d="M190.795,112.636L385.285,112.636" style="fill:none;fill-rule:nonzero;stroke:white;stroke-width:0.53px;"/>
    </g>
    <g transform="matrix(1,0,0,1,0,-122.218)">
        <path d="M190.795,151.109L385.285,151.109" style="fill:none;fill-rule:nonzero;stroke:white;stroke-width:0.53px;"/>
    </g>
    <g transform="matrix(0,-1,-1,0,308.593,293.745)">
        <path d="M133.473,97.424L288.865,97.424" style="fill:none;fill-rule:nonzero;stroke:white;stroke-width:0.53px;"/>
    </g>
    <g transform="matrix(0,-1,-1,0,347.031,332.183)">
        <path d="M171.911,97.424L327.303,97.424" style="fill:none;fill-rule:nonzero;stroke:white;stroke-width:0.53px;"/>
    </g>
    <g transform="matrix(0,-1,-1,0,385.464,370.616)">
        <path d="M210.344,97.424L365.736,97.424" style="fill:none;fill-rule:nonzero;stroke:white;stroke-width:0.53px;"/>
    </g>
    <g transform="matrix(0,-1,-1,0,423.902,409.054)">
        <path d="M248.782,97.424L404.174,97.424" style="fill:none;fill-rule:nonzero;stroke:white;stroke-width:0.53px;"/>
    </g>
    <g transform="matrix(0,-1,-1,0,462.34,447.492)">
        <path d="M287.22,97.424L442.612,97.424" style="fill:none;fill-rule:nonzero;stroke:white;stroke-width:0.53px;"/>
    </g>
    <g transform="matrix(1,0,0,1,0,70.1244)">
        <path d="M190.795,54.938L385.285,54.938" style="fill:none;fill-rule:nonzero;stroke:white;stroke-width:1.07px;"/>
    </g>
    <g transform="matrix(1,0,0,1,0,-6.8106)">
        <path d="M190.795,93.405L385.285,93.405" style="fill:none;fill-rule:nonzero;stroke:white;stroke-width:1.07px;"/>
    </g>
    <g transform="matrix(1,0,0,1,0,-83.746)">
        <path d="M190.795,131.873L385.285,131.873" style="fill:none;fill-rule:nonzero;stroke:white;stroke-width:1.07px;"/>
    </g>
    <g transform="matrix(1,0,0,1,0,-160.68)">
        <path d="M190.795,170.34L385.285,170.34" style="fill:none;fill-rule:nonzero;stroke:white;stroke-width:1.07px;"/>
    </g>
    <g transform="matrix(0,-1,-1,0,289.376,274.528)">
        <path d="M114.256,97.424L269.648,97.424" style="fill:none;fill-rule:nonzero;stroke:white;stroke-width:1.07px;"/>
    </g>
    <g transform="matrix(0,-1,-1,0,327.81,312.962)">
        <path d="M152.69,97.424L308.082,97.424" style="fill:none;fill-rule:nonzero;stroke:white;stroke-width:1.07px;"/>
    </g>
    <g transform="matrix(0,-1,-1,0,366.248,351.4)">
        <path d="M191.128,97.424L346.52,97.424" style="fill:none;fill-rule:nonzero;stroke:white;stroke-width:1.07px;"/>
    </g>
    <g transform="matrix(0,-1,-1,0,404.686,389.838)">
        <path d="M229.566,97.424L384.958,97.424" style="fill:none;fill-rule:nonzero;stroke:white;stroke-width:1.07px;"/>
    </g>
    <g transform="matrix(0,-1,-1,0,443.119,428.271)">
        <path d="M267.999,97.424L423.391,97.424" style="fill:none;fill-rule:nonzero;stroke:white;stroke-width:1.07px;"/>
    </g>
    <g transform="matrix(0,-1,-1,0,481.557,466.709)">
        <path d="M306.437,97.424L461.829,97.424" style="fill:none;fill-rule:nonzero;stroke:white;stroke-width:1.07px;"/>
    </g>
    <g transform="matrix(0.276971,0.960878,0.960878,-0.276971,152.568,-138.679)">
        <path d="M242.255,-20.844L297.762,-20.844L301.555,2.066L287.894,54.005L282.576,151.538" style="fill:none;fill-rule:nonzero;stroke:rgb(248,118,109);stroke-width:1.07px;"/>
    </g>
    <g transform="matrix(0.400786,0.916172,0.916172,-0.400786,73.5985,-148.644)">
        <path d="M226.907,38.309L265.267,38.309L293.717,51.037L307.422,95.385L323.451,189.058" style="fill:none;fill-rule:nonzero;stroke:rgb(196,154,0);stroke-width:1.07px;"/>
    </g>
    <g transform="matrix(0.619639,0.784887,0.784887,-0.619639,7.52387,-95.5257)">
        <path d="M213.648,76.098L238.459,76.098L266.447,83.388L305.274,111.5L356.009,188.973" style="fill:none;fill-rule:nonzero;stroke:rgb(83,180,0);stroke-width:1.07px;"/>
    </g>
    <g transform="matrix(0.750402,0.660982,0.660982,-0.750402,-19.9455,-45.0696)">
        <path d="M207.15,97.032L227.638,97.032L254.161,101.814L296.711,123.288L368.93,180.857" style="fill:none;fill-rule:nonzero;stroke:rgb(0,192,148);stroke-width:1.07px;"/>
    </g>
    <g transform="matrix(0.913257,0.407384,0.407384,-0.913257,-34.8806,49.9101)">
        <path d="M199.969,127.384L216.804,127.384L241.591,128.431L288.392,136.732L376.111,166.521" style="fill:none;fill-rule:nonzero;stroke:rgb(0,182,235);stroke-width:1.07px;"/>
    </g>
    <g transform="matrix(0.96645,0.256857,0.256857,-0.96645,-29.2996,100.926)">
        <path d="M198.68,143.749L214.587,143.749L238.723,142.731L285.791,145.198L377.4,159.638" style="fill:none;fill-rule:nonzero;stroke:rgb(165,138,255);stroke-width:1.07px;"/>
    </g>
    <g transform="matrix(0.989598,0.143863,0.143863,-0.989598,-19.4272,136.94)">
        <path d="M198.803,155.211L214.339,155.211L237.744,154.528L284.607,152.775L377.277,156.523" style="fill:none;fill-rule:nonzero;stroke:rgb(251,97,215);stroke-width:1.07px;"/>
    </g>
    <g transform="matrix(1,0,0,1,0,70.1244)">
        <path d="M189.395,54.938L190.795,54.938" style="fill:none;fill-rule:nonzero;stroke:rgb(51,51,51);stroke-width:1.07px;"/>
    </g>
    <g transform="matrix(1,0,0,1,0,-6.8106)">
        <path d="M189.395,93.405L190.795,93.405" style="fill:none;fill-rule:nonzero;stroke:rgb(51,51,51);stroke-width:1.07px;"/>
    </g>
    <g transform="matrix(1,0,0,1,0,-83.746)">
        <path d="M189.395,131.873L190.795,131.873" style="fill:none;fill-rule:nonzero;stroke:rgb(51,51,51);stroke-width:1.07px;"/>
    </g>
    <g transform="matrix(1,0,0,1,0,-160.68)">
        <path d="M189.395,170.34L190.795,170.34" style="fill:none;fill-rule:nonzero;stroke:rgb(51,51,51);stroke-width:1.07px;"/>
    </g>
    <g transform="matrix(0,-1,-1,0,210.939,352.965)">
        <path d="M191.211,18.987L192.694,18.987" style="fill:none;fill-rule:nonzero;stroke:rgb(51,51,51);stroke-width:1.07px;"/>
    </g>
    <g transform="matrix(0,-1,-1,0,249.373,391.399)">
        <path d="M229.645,18.987L231.128,18.987" style="fill:none;fill-rule:nonzero;stroke:rgb(51,51,51);stroke-width:1.07px;"/>
    </g>
    <g transform="matrix(0,-1,-1,0,287.811,429.837)">
        <path d="M268.083,18.987L269.566,18.987" style="fill:none;fill-rule:nonzero;stroke:rgb(51,51,51);stroke-width:1.07px;"/>
    </g>
    <g transform="matrix(0,-1,-1,0,326.249,468.275)">
        <path d="M306.521,18.987L308.004,18.987" style="fill:none;fill-rule:nonzero;stroke:rgb(51,51,51);stroke-width:1.07px;"/>
    </g>
    <g transform="matrix(0,-1,-1,0,364.682,506.708)">
        <path d="M344.954,18.987L346.437,18.987" style="fill:none;fill-rule:nonzero;stroke:rgb(51,51,51);stroke-width:1.07px;"/>
    </g>
    <g transform="matrix(0,-1,-1,0,403.12,545.146)">
        <path d="M383.392,18.987L384.875,18.987" style="fill:none;fill-rule:nonzero;stroke:rgb(51,51,51);stroke-width:1.07px;"/>
    </g>
    <g transform="matrix(1,0,0,1,0,-14.843)">
        <rect x="386.389" y="57.444" width="24.909" height="79.955" style="fill:white;"/>
    </g>
    <g>
        <text x="400.947px" y="52.144px" style="font-family:'Helvetica-Bold', 'Helvetica';font-weight:700;font-size:11px;">T</text>
        <text x="402.824px" y="62.074px" style="font-family:'Helvetica';font-size:7px;">6</text>
        <text x="402.824px" y="73.354px" style="font-family:'Helvetica';font-size:7px;">12</text>
        <text x="402.824px" y="84.634px" style="font-family:'Helvetica';font-size:7px;">24</text>
        <text x="402.824px" y="95.914px" style="font-family:'Helvetica';font-size:7px;">36</text>
        <text x="402.824px" y="107.194px" style="font-family:'Helvetica';font-size:7px;">60</text>
        <text x="402.824px" y="118.474px" style="font-family:'Helvetica';font-size:7px;">84</text>
        <text x="402.824px" y="129.754px" style="font-family:'Helvetica';font-size:7px;">120</text>
    </g>
    <g>
        <text x="87.225px" y="174.506px" style="font-family:'Helvetica-Bold', 'Helvetica';font-weight:700;font-size:9px;">L<tspan x="93.172px " y="174.506px ">a</tspan></text>
        <text x="98.628px" y="174.506px" style="font-family:'Helvetica-Bold', 'Helvetica';font-weight:700;font-size:9px;">g <tspan x="107.535px " y="174.506px ">(</tspan>k)</text>
    </g>
    <g transform="matrix(1,0,0,1,0,-60.466)">
        <rect x="389.19" y="114.585" width="10.668" height="11.296" style="fill:rgb(242,242,242);"/>
    </g>
    <g transform="matrix(1,0,0,1,0,-60.466)">
        <path d="M390.258,120.233L398.79,120.233" style="fill:none;fill-rule:nonzero;stroke:rgb(248,118,109);stroke-width:1.07px;"/>
    </g>
    <g transform="matrix(1,0,0,1,0,-37.874)">
        <rect x="389.19" y="103.289" width="10.668" height="11.296" style="fill:rgb(242,242,242);"/>
    </g>
    <g transform="matrix(1,0,0,1,0,-37.874)">
        <path d="M390.258,108.937L398.79,108.937" style="fill:none;fill-rule:nonzero;stroke:rgb(196,154,0);stroke-width:1.07px;"/>
    </g>
    <g transform="matrix(1,0,0,1,0,-15.2824)">
        <rect x="389.19" y="91.993" width="10.668" height="11.296" style="fill:rgb(242,242,242);"/>
    </g>
    <g transform="matrix(1,0,0,1,0,-15.2824)">
        <path d="M390.258,97.641L398.79,97.641" style="fill:none;fill-rule:nonzero;stroke:rgb(83,180,0);stroke-width:1.07px;"/>
    </g>
    <g transform="matrix(1,0,0,1,0,7.3096)">
        <rect x="389.19" y="80.697" width="10.668" height="11.296" style="fill:rgb(242,242,242);"/>
    </g>
    <g transform="matrix(1,0,0,1,0,7.3096)">
        <path d="M390.258,86.345L398.79,86.345" style="fill:none;fill-rule:nonzero;stroke:rgb(0,192,148);stroke-width:1.07px;"/>
    </g>
    <g transform="matrix(1,0,0,1,0,29.9014)">
        <rect x="389.19" y="69.401" width="10.668" height="11.296" style="fill:rgb(242,242,242);"/>
    </g>
    <g transform="matrix(1,0,0,1,0,29.9016)">
        <path d="M390.258,75.049L398.79,75.049" style="fill:none;fill-rule:nonzero;stroke:rgb(0,182,235);stroke-width:1.07px;"/>
    </g>
    <g transform="matrix(1,0,0,1,0,52.4934)">
        <rect x="389.19" y="58.105" width="10.668" height="11.296" style="fill:rgb(242,242,242);"/>
    </g>
    <g transform="matrix(1,0,0,1,0,52.4934)">
        <path d="M390.258,63.753L398.79,63.753" style="fill:none;fill-rule:nonzero;stroke:rgb(165,138,255);stroke-width:1.07px;"/>
    </g>
    <g transform="matrix(1,0,0,1,0,75.0854)">
        <rect x="389.19" y="46.809" width="10.668" height="11.296" style="fill:rgb(242,242,242);"/>
    </g>
    <g transform="matrix(1,0,0,1,0,75.0854)">
        <path d="M390.258,52.457L398.79,52.457" style="fill:none;fill-rule:nonzero;stroke:rgb(251,97,215);stroke-width:1.07px;"/>
    </g>
</svg>
