<?xml version="1.0" encoding="UTF-8" standalone="no"?>
<!DOCTYPE svg PUBLIC "-//W3C//DTD SVG 1.1//EN" "http://www.w3.org/Graphics/SVG/1.1/DTD/svg11.dtd">
<svg width="100%" height="100%" viewBox="0 0 400 250" version="1.1" xmlns="http://www.w3.org/2000/svg" xmlns:xlink="http://www.w3.org/1999/xlink" xml:space="preserve" xmlns:serif="http://www.serif.com/" style="fill-rule:evenodd;clip-rule:evenodd;stroke-linecap:round;stroke-linejoin:round;stroke-miterlimit:10;">
    <g transform="matrix(1,0,0,1,0,164.731)">
        <rect x="-8.192" y="-2.572" width="413.899" height="90.414" style="fill:rgb(239,238,238);"/>
    </g>
    <g transform="matrix(1,0,0,1,0,239.2)">
        <path d="M26.143,5.4L156.782,5.4" style="fill:none;fill-rule:nonzero;stroke:black;stroke-width:0.49px;"/>
    </g>
    <g transform="matrix(1,0,0,1,0,194.301)">
        <path d="M19.965,27.85L328.387,27.85" style="fill:none;fill-rule:nonzero;stroke:black;stroke-width:0.49px;"/>
    </g>
    <g transform="matrix(1,0,0,1,0,239.2)">
        <path d="M163.456,5.4L155.16,9.333L155.16,1.467L163.456,5.4Z" style="stroke:rgb(235,235,235);stroke-width:0.29px;"/>
    </g>
    <g transform="matrix(1,0,0,1,0,175.545)">
        <path d="M165.479,41.815L165.81,32.64L172.792,36.264L165.479,41.815Z" style="fill:rgb(0,166,80);stroke:rgb(235,235,235);stroke-width:0.29px;"/>
    </g>
    <g transform="matrix(1,0,0,1,0,239.2)">
        <path d="M20.012,5.396L28.31,1.467L28.305,9.333L20.012,5.396Z" style="stroke:rgb(235,235,235);stroke-width:0.29px;"/>
    </g>
    <g transform="matrix(1,0,0,1,0,239.2)">
        <path d="M254.798,5.4L318.749,5.4" style="fill:none;fill-rule:nonzero;stroke:black;stroke-width:0.49px;"/>
    </g>
    <g transform="matrix(1,0,0,1,0,239.2)">
        <path d="M327.026,5.4L318.73,9.333L318.73,1.467L327.026,5.4Z" style="stroke:rgb(235,235,235);stroke-width:0.29px;"/>
    </g>
    <g transform="matrix(1,0,0,1,0,239.2)">
        <path d="M247.103,5.396L255.401,1.467L255.397,9.333L247.103,5.396Z" style="stroke:rgb(235,235,235);stroke-width:0.29px;"/>
    </g>
    <g transform="matrix(0,1,1,0,136.162,57.6316)">
        <path d="M161.115,28.103L167.415,28.103" style="fill:none;fill-rule:nonzero;stroke:rgb(29,25,27);stroke-width:1px;"/>
    </g>
    <g transform="matrix(0,1,1,0,219.443,-25.1432)">
        <path d="M244.594,27.85L249.992,27.85" style="fill:none;fill-rule:nonzero;stroke:rgb(29,25,27);stroke-width:0.49px;"/>
    </g>
    <g transform="matrix(0,1,1,0,-8.11255,201.906)">
        <path d="M16.841,28.103L23.141,28.103" style="fill:none;fill-rule:nonzero;stroke:rgb(29,25,27);stroke-width:1px;"/>
    </g>
    <g transform="matrix(0,1,1,0,300.322,-106.528)">
        <path d="M325.275,28.103L331.575,28.103" style="fill:none;fill-rule:nonzero;stroke:rgb(29,25,27);stroke-width:1px;"/>
    </g>
    <g transform="matrix(1,0,0,1,0,239.2)">
        <path d="M173.577,5.4L238.944,5.4" style="fill:none;fill-rule:nonzero;stroke:rgb(237,28,36);stroke-width:0.49px;"/>
    </g>
    <g transform="matrix(1,0,0,1,0,239.2)">
        <path d="M246.378,5.4L238.082,9.333L238.082,1.467L246.378,5.4Z" style="fill:rgb(237,28,36);stroke:rgb(237,28,36);stroke-width:0.29px;"/>
    </g>
    <g transform="matrix(1,0,0,1,0,239.2)">
        <path d="M165.173,5.396L173.47,1.467L173.466,9.333L165.173,5.396Z" style="fill:rgb(237,28,36);stroke:rgb(237,28,36);stroke-width:0.29px;"/>
    </g>
    <g transform="matrix(0,1,1,0,130.6,-114.266)">
        <path d="M150.114,116.833L344.752,116.833" style="fill:none;fill-rule:nonzero;stroke:rgb(148,147,147);stroke-width:1px;stroke-dasharray:2,3,0,0;"/>
    </g>
    <g transform="matrix(1,0,0,1,0,-119.412)">
        <path d="M82.587,184.706L321.925,184.706" style="fill:none;fill-rule:nonzero;stroke:black;stroke-width:0.49px;"/>
    </g>
    <g transform="matrix(1,0,0,1,0,-76.514)">
        <path d="M85.994,163.257L220.739,163.257" style="fill:none;fill-rule:nonzero;stroke:black;stroke-width:0.49px;"/>
    </g>
    <g transform="matrix(1,0,0,1,0,-76.513)">
        <path d="M227.984,163.256L219.688,167.19L219.688,159.323L227.984,163.256Z" style="stroke:rgb(235,235,235);stroke-width:0.29px;"/>
    </g>
    <g transform="matrix(1,0,0,1,0,-76.513)">
        <path d="M82.539,163.252L90.837,159.323L90.833,167.19L82.539,163.252Z" style="stroke:rgb(235,235,235);stroke-width:0.29px;"/>
    </g>
    <g transform="matrix(0,1,1,0,44.15,-163.436)">
        <path d="M225.55,184.643L232.036,184.643" style="fill:none;fill-rule:nonzero;stroke:rgb(29,25,27);stroke-width:1px;"/>
    </g>
    <g transform="matrix(0,1,1,0,62.7225,-182.135)">
        <path d="M244.73,184.707L250.127,184.707" style="fill:none;fill-rule:nonzero;stroke:rgb(29,25,27);stroke-width:0.49px;"/>
    </g>
    <g transform="matrix(0,1,1,0,-102.124,-17.1616)">
        <path d="M79.276,184.643L85.762,184.643" style="fill:none;fill-rule:nonzero;stroke:rgb(29,25,27);stroke-width:1px;"/>
    </g>
    <g transform="matrix(0,1,1,0,81.537,-200.823)">
        <path d="M262.937,184.643L269.423,184.643" style="fill:none;fill-rule:nonzero;stroke:rgb(29,25,27);stroke-width:1px;"/>
    </g>
    <g transform="matrix(1,0,0,1,0,-76.514)">
        <path d="M231.886,163.257L242.472,163.257" style="fill:none;fill-rule:nonzero;stroke:rgb(237,28,36);stroke-width:0.49px;"/>
    </g>
    <g transform="matrix(1,0,0,1,0,-76.611)">
        <path d="M246.207,163.305L241.61,165.485L241.61,161.126L246.207,163.305Z" style="fill:rgb(237,28,36);stroke:rgb(237,28,36);stroke-width:0.29px;"/>
    </g>
    <g transform="matrix(1,0,0,1,0,-76.705)">
        <path d="M229.255,163.35L233.998,161.104L233.995,165.601L229.255,163.35Z" style="fill:rgb(237,28,36);stroke:rgb(237,28,36);stroke-width:0.29px;"/>
    </g>
    <g transform="matrix(1,0,0,1,0,-76.514)">
        <path d="M250.886,163.257L261.472,163.257" style="fill:none;fill-rule:nonzero;stroke:rgb(5,1,1);stroke-width:0.49px;"/>
    </g>
    <g transform="matrix(1,0,0,1,0,-76.611)">
        <path d="M265.207,163.305L260.61,165.485L260.61,161.126L265.207,163.305Z" style="fill:rgb(5,0,0);stroke:rgb(9,0,1);stroke-width:0.29px;"/>
    </g>
    <g transform="matrix(1,0,0,1,0,-76.705)">
        <path d="M248.255,163.35L252.998,161.104L252.995,165.601L248.255,163.35Z" style="fill:rgb(5,0,0);stroke:rgb(9,0,1);stroke-width:0.29px;"/>
    </g>
    <g transform="matrix(-0.430313,0.90268,0.90268,0.430313,193.225,-69.0341)">
        <path d="M126.814,98.544L267.755,98.544" style="fill:none;fill-rule:nonzero;stroke:rgb(0,166,80);stroke-width:1px;"/>
    </g>
    <text x="124.059px" y="82.343px" style="font-family:'Avenir-Book', 'Avenir';font-size:10px;">training sample</text>
    <text x="57.526px" y="240.047px" style="font-family:'Avenir-Book', 'Avenir';font-size:10px;">training sample</text>
    <g>
        <text x="278.087px" y="80.735px" style="font-family:'Avenir-Book', 'Avenir';font-size:10px;fill:rgb(101,100,100);">= pr<tspan x="296.782px 302.343px " y="80.735px 80.735px ">ed</tspan>iction horizon</text>
        <text x="278.087px" y="91.665px" style="font-family:'Avenir-Book', 'Avenir';font-size:10px;fill:rgb(101,100,100);">= holding period</text>
        <text x="278.087px" y="102.595px" style="font-family:'Avenir-Book', 'Avenir';font-size:10px;fill:rgb(101,100,100);">= r<tspan x="290.671px 296.232px " y="102.595px 102.595px ">eb</tspan>alancing date</text>
    </g>
    <g>
        <text x="229.062px" y="8.892px" style="font-family:'Avenir-Book', 'Avenir';font-size:12px;fill:rgb(111,112,115);">curre<tspan x="256.152px " y="8.892px ">n</tspan>t</text>
        <text x="234.728px" y="20.892px" style="font-family:'Avenir-Book', 'Avenir';font-size:12px;fill:rgb(111,112,115);">time</text>
    </g>
    <g>
        <text x="316.984px" y="237.523px" style="font-family:'Avenir-Book', 'Avenir';font-size:12.148px;">t</text>
        <text x="321.019px" y="237.523px" style="font-family:'Avenir-Book', 'Avenir';font-size:12.148px;">+<tspan x="328.368px " y="237.523px ">k</tspan></text>
    </g>
    <text x="9.478px" y="237.483px" style="font-family:'Avenir-Book', 'Avenir';font-size:12.148px;">t-k-T</text>
    <text x="156.923px" y="237.681px" style="font-family:'Avenir-Book', 'Avenir';font-size:12.148px;">t-k</text>
    <text x="245.242px" y="32.263px" style="font-family:'Avenir-Book', 'Avenir';font-size:16px;">t</text>
    <g>
        <text x="256.512px" y="80.666px" style="font-family:'Avenir-Book', 'Avenir';font-size:12.148px;">t</text>
        <text x="260.547px" y="80.666px" style="font-family:'Avenir-Book', 'Avenir';font-size:12.148px;">+<tspan x="267.896px " y="80.666px ">k</tspan></text>
    </g>
    <text x="70.006px" y="80.626px" style="font-family:'Avenir-Book', 'Avenir';font-size:12.148px;">t-k-T</text>
    <text x="221.647px" y="79.967px" style="font-family:'Avenir-Book', 'Avenir';font-size:12.148px;">t-k</text>
    <g>
        <text x="5.775px" y="15.056px" style="font-family:'Avenir-Black', 'Avenir', sans-serif;font-weight:800;font-size:11px;">Short ter<tspan x="52.789px 62.359px " y="15.056px 15.056px ">m </tspan>for<tspan x="80.674px 86.988px " y="15.056px 15.056px ">ec</tspan>asting</text>
        <text x="5.775px" y="27.056px" style="font-family:'Avenir-Book', 'Avenir';font-size:11px;">(small k, low autocorr<tspan x="109.252px 115.368px " y="27.056px 27.056px ">el</tspan>ation)</text>
    </g>
    <g>
        <text x="7.85px" y="176.865px" style="font-family:'Avenir-Black', 'Avenir', sans-serif;font-weight:800;font-size:11px;">Long ter<tspan x="52.433px 62.003px " y="176.865px 176.865px ">m </tspan>for<tspan x="80.318px 86.632px " y="176.865px 176.865px ">ec</tspan>asting</text>
        <text x="7.85px" y="188.865px" style="font-family:'Avenir-Book', 'Avenir';font-size:11px;">(lar<tspan x="22.513px 29.234px " y="188.865px 188.865px ">ge</tspan> k, high autocorr<tspan x="115.408px 121.524px " y="188.865px 188.865px ">el</tspan>ation)</text>
    </g>
    <g>
        <text x="35.556px" y="112.82px" style="font-family:'Avenir-Book', 'Avenir';font-size:10px;fill:rgb(0,166,80);">T<tspan x="40.186px 46.116px " y="112.82px 112.82px ">o </tspan>pr<tspan x="58.146px 63.706px " y="112.82px 112.82px ">ev</tspan>ent forwar<tspan x="113.506px 119.616px " y="112.82px 112.82px ">d-</tspan>looking leakages,</text>
        <text x="35.556px" y="123.82px" style="font-family:'Avenir-Book', 'Avenir';font-size:10px;fill:rgb(0,166,80);">the training sample is shifted</text>
        <text x="35.556px" y="134.82px" style="font-family:'Avenir-Book', 'Avenir';font-size:10px;fill:rgb(0,166,80);">further back in the past</text>
        <text x="55.016px" y="145.82px" style="font-family:'Avenir-Book', 'Avenir';font-size:10px;fill:rgb(0,166,80);">risk of</text>
        <text x="84.266px" y="145.82px" style="font-family:'Avenir-Black', 'Avenir', sans-serif;font-weight:800;font-size:10px;fill:rgb(0,166,80);">model obsolescence</text>
    </g>
    <g>
        <g transform="matrix(0.969765,0,0,1,10.0331,0)">
            <text x="331.844px" y="195.002px" style="font-family:'Avenir-Book', 'Avenir';font-size:11.059px;fill:rgb(2,78,162);">smooth curve</text>
        </g>
        <g transform="matrix(0.969765,0,0,1,10.574,0)">
            <text x="349.733px" y="208.272px" style="font-family:'Avenir-Black', 'Avenir', sans-serif;font-weight:800;font-size:11.059px;fill:rgb(2,78,162);">memory</text>
        </g>
    </g>
    <g transform="matrix(1,0,0,1,0,37.14)">
        <path d="M38.111,107.413L38.111,105.447L48.477,105.447L48.477,102.855L52.052,106.43L48.477,110.005L48.477,107.413L38.111,107.413Z" style="fill:rgb(0,166,80);"/>
    </g>
    <g transform="matrix(1,0,0,1,0,-147.828)">
        <path d="M84.166,192.347L85.747,201.579L87.328,192.18L88.909,195.836L90.49,193.25L92.071,198.046L93.648,193.146L95.229,194.167L96.81,207.717L98.391,192.149L99.972,194.606L101.553,197.651L103.134,200.019L104.715,202.015L106.291,192.308L107.873,193.47L109.454,200.851L111.035,196.3L112.616,206.052L114.197,201.5L115.778,204.175L117.359,204.29L118.94,193.052L120.517,192.896L122.098,206.298L123.679,208.43L125.26,196.64L126.841,192.503L128.422,194.635L130.003,191.971L131.584,193.12L133.165,199.032L134.742,199.431L136.323,200.327L137.904,199.895L139.485,200.513L141.066,197.458L142.647,200.388L144.228,193.149L145.809,210.979L147.386,196.686L148.967,198.315L150.548,201.119L152.129,196.354L153.71,203.9L155.291,202.214L156.872,197.557L158.453,195.771L160.034,200.458L161.611,181.842L163.192,195.264L164.773,200.008L166.354,192.616L167.935,196.994L169.516,202.384L171.097,188.182L172.678,187.637L174.255,195.195L175.836,196.887L177.417,205.844L178.998,195.288L180.579,198.529L182.16,199.019L183.741,197.878L185.322,206.26L186.903,189.791L188.48,199.08L190.061,198.609L191.642,213.908L193.223,207.196L194.804,199.796L196.385,190.708L197.966,197.441L199.547,210.128L201.128,209.256L202.705,197.354L204.286,195.416L205.867,193.336L207.448,201.043L209.029,196.214L210.61,201.319L212.191,200.864L213.772,197.311L215.349,204.334L216.93,195.226L218.511,205.331L220.092,202.324L221.673,197.417L223.254,200.326L224.835,192.632L226.416,210.083L227.998,190.683L229.574,199.603L231.155,207.033L232.736,202.015L234.317,190.042L235.898,199.661L237.479,195.795L239.06,201.864L240.642,193.05L242.223,204.1L243.799,197.028L245.38,198.354L246.961,192.081L248.542,205.039L250.123,202.108L251.704,198.679L253.286,195.219L254.867,193.559L256.443,195.298L258.024,184.433L259.605,200.616L261.186,201.225L262.767,205.921L264.348,204.743L265.93,202.091L267.511,195.034L269.092,194.405L270.668,205.045L272.249,205.906L273.83,205.177L275.411,198.651L276.992,200.796L278.574,187.425L280.155,200.201L281.736,215.986L283.312,189.61L284.893,205.679L286.474,206.421L288.055,199.447L289.636,204.326L291.218,201.821L292.799,191.656L294.38,197.874L295.961,202.23L297.537,192.197L299.118,201.921L300.699,184.145L302.28,195.397L303.862,203.658L305.443,192.368L307.024,198.888L308.605,202.219L310.186,209.958L311.762,200.895L313.343,189.289L314.924,189.873L316.506,195.531L318.087,203.118L319.668,197.389" style="fill:none;fill-rule:nonzero;stroke:rgb(2,78,162);stroke-width:1.07px;stroke-linecap:butt;"/>
    </g>
    <g transform="matrix(1,0,0,1,0,173.109)">
        <path d="M22.477,37.204L25.561,37.051L28.645,33.663L31.729,32.142L34.813,28.525L37.891,27.291L40.975,26.588L44.059,26.557L47.143,27.807L50.227,27.26L53.311,30.654L56.395,32.171L59.479,29.865L62.563,30.318L65.647,31.47L68.731,34.06L71.815,31.271L74.899,29.848L77.983,32.569L81.067,31.213L84.152,31.119L87.229,26.823L90.313,27.354L93.398,24.279L96.482,26.564L99.566,28.388L102.65,26.791L105.734,28.04L108.818,28.937L111.902,27.896L114.986,32.544L118.07,32.788L121.154,36.819L124.238,38.197L127.322,37.694L130.406,36.8L133.49,37.004L136.568,35.61L139.652,34.713L142.736,33.177L145.82,35.579L148.904,36.187L151.988,38.508L155.072,38.99L158.156,37.171L161.24,34.482L164.324,33.404L167.408,31.503L170.492,33.06L173.576,30.474L176.66,30.152L179.744,27.561L182.828,25.203L185.906,25.337L188.99,26.989L192.074,25.588L195.158,24.951L198.242,27.613L201.326,27.467L204.411,30.969L207.495,31.059L210.579,30.69L213.663,33.73L216.747,33.605L219.831,35.185L222.915,37.559L225.999,39.24L229.083,39.621L232.167,40.836L235.245,44.618L238.329,44.267L241.413,45.87L244.497,48.107L247.581,45.459L250.665,42.728L253.749,43.612L256.833,44.656L259.917,45.983L263.001,47.886L266.085,49.592L269.169,49.506L272.253,51.394L275.337,52.155L278.421,52.611L281.505,47.895L284.583,49.427L287.667,47.754L290.751,46.672L293.835,46.319L296.919,46.301L300.003,47.682L303.087,44.048L306.171,42.668L309.255,39.206L312.34,38.944L315.424,36.477L318.508,34.952L321.592,36.079L324.676,35.97L327.76,33.947" style="fill:none;fill-rule:nonzero;stroke:rgb(2,78,162);stroke-width:1.07px;stroke-linecap:butt;"/>
    </g>
    <g transform="matrix(1,0,0,1,0,160.978)">
        <path d="M332.796,45.458L332.796,43.564L342.674,43.564L342.674,41.069L346.116,44.511L342.674,47.953L342.674,45.458L332.796,45.458Z" style="fill:rgb(2,78,162);"/>
    </g>
</svg>
