<?xml version="1.0" encoding="UTF-8" standalone="no"?>
<!DOCTYPE svg PUBLIC "-//W3C//DTD SVG 1.1//EN" "http://www.w3.org/Graphics/SVG/1.1/DTD/svg11.dtd">
<svg width="100%" height="100%" viewBox="0 0 504 280" version="1.1" xmlns="http://www.w3.org/2000/svg" xmlns:xlink="http://www.w3.org/1999/xlink" xml:space="preserve" xmlns:serif="http://www.serif.com/" style="fill-rule:evenodd;clip-rule:evenodd;stroke-linejoin:round;stroke-miterlimit:10;">
    <g transform="matrix(1,0,0,1,0,-18.43)">
        <rect x="38.23" y="23.91" width="457.29" height="250.61" style="fill:rgb(235,235,235);"/>
    </g>
    <g transform="matrix(1,0,0,1,0,91.04)">
        <path d="M38.23,94.48L495.52,94.48" style="fill:none;fill-rule:nonzero;stroke:white;stroke-width:0.53px;"/>
    </g>
    <g transform="matrix(1,0,0,1,0,-56.4)">
        <path d="M38.23,168.2L495.52,168.2" style="fill:none;fill-rule:nonzero;stroke:white;stroke-width:0.53px;"/>
    </g>
    <g transform="matrix(1,0,0,1,0,-203.86)">
        <path d="M38.23,241.93L495.52,241.93" style="fill:none;fill-rule:nonzero;stroke:white;stroke-width:0.53px;"/>
    </g>
    <g transform="matrix(0,-1,-1,0,231.935,213.505)">
        <path d="M-42.585,149.215L208.025,149.215" style="fill:none;fill-rule:nonzero;stroke:white;stroke-width:0.53px;"/>
    </g>
    <g transform="matrix(0,-1,-1,0,323.105,304.675)">
        <path d="M48.585,149.215L299.195,149.215" style="fill:none;fill-rule:nonzero;stroke:white;stroke-width:0.53px;"/>
    </g>
    <g transform="matrix(0,-1,-1,0,414.265,395.835)">
        <path d="M139.745,149.215L390.355,149.215" style="fill:none;fill-rule:nonzero;stroke:white;stroke-width:0.53px;"/>
    </g>
    <g transform="matrix(0,-1,-1,0,505.435,487.005)">
        <path d="M230.915,149.215L481.525,149.215" style="fill:none;fill-rule:nonzero;stroke:white;stroke-width:0.53px;"/>
    </g>
    <g transform="matrix(0,-1,-1,0,596.605,578.175)">
        <path d="M322.085,149.215L572.695,149.215" style="fill:none;fill-rule:nonzero;stroke:white;stroke-width:0.53px;"/>
    </g>
    <g transform="matrix(1,0,0,1,0,164.78)">
        <path d="M38.23,57.61L495.52,57.61" style="fill:none;fill-rule:nonzero;stroke:white;stroke-width:1.07px;"/>
    </g>
    <g transform="matrix(1,0,0,1,0,17.32)">
        <path d="M38.23,131.34L495.52,131.34" style="fill:none;fill-rule:nonzero;stroke:white;stroke-width:1.07px;"/>
    </g>
    <g transform="matrix(1,0,0,1,0,-130.14)">
        <path d="M38.23,205.07L495.52,205.07" style="fill:none;fill-rule:nonzero;stroke:white;stroke-width:1.07px;"/>
    </g>
    <g transform="matrix(0,-1,-1,0,277.525,259.095)">
        <path d="M3.005,149.215L253.615,149.215" style="fill:none;fill-rule:nonzero;stroke:white;stroke-width:1.07px;"/>
    </g>
    <g transform="matrix(0,-1,-1,0,368.685,350.255)">
        <path d="M94.165,149.215L344.775,149.215" style="fill:none;fill-rule:nonzero;stroke:white;stroke-width:1.07px;"/>
    </g>
    <g transform="matrix(0,-1,-1,0,459.855,441.425)">
        <path d="M185.335,149.215L435.945,149.215" style="fill:none;fill-rule:nonzero;stroke:white;stroke-width:1.07px;"/>
    </g>
    <g transform="matrix(0,-1,-1,0,551.015,532.585)">
        <path d="M276.495,149.215L527.105,149.215" style="fill:none;fill-rule:nonzero;stroke:white;stroke-width:1.07px;"/>
    </g>
    <g transform="matrix(0,-1,-1,0,642.185,623.755)">
        <path d="M367.665,149.215L618.275,149.215" style="fill:none;fill-rule:nonzero;stroke:white;stroke-width:1.07px;"/>
    </g>
    <g transform="matrix(0,1,1,0,-151.95,10)">
        <path d="M59.02,209.02C57.95,209.02 57.07,209.9 57.07,210.97C57.07,212.05 57.95,212.93 59.02,212.93C60.1,212.93 60.98,212.05 60.98,210.97C60.98,209.9 60.1,209.02 59.02,209.02" style="fill:rgb(252,210,37);fill-rule:nonzero;stroke:rgb(252,210,37);stroke-width:0.71px;stroke-linecap:round;"/>
    </g>
    <g transform="matrix(0,1,1,0,-131.615,-13.415)">
        <path d="M80.895,210.565C79.825,210.565 78.945,211.435 78.945,212.515C78.945,213.595 79.825,214.465 80.895,214.465C81.975,214.465 82.855,213.595 82.855,212.515C82.855,211.435 81.975,210.565 80.895,210.565" style="fill:rgb(252,210,37);fill-rule:nonzero;stroke:rgb(252,210,37);stroke-width:0.71px;stroke-linecap:round;"/>
    </g>
    <g transform="matrix(0,1,1,0,-16.37,14.32)">
        <path d="M124.65,139.07C123.58,139.07 122.7,139.95 122.7,141.03C122.7,142.1 123.58,142.98 124.65,142.98C125.73,142.98 126.61,142.1 126.61,141.03C126.61,139.95 125.73,139.07 124.65,139.07" style="fill:rgb(252,210,37);fill-rule:nonzero;stroke:rgb(252,210,37);stroke-width:0.71px;stroke-linecap:round;"/>
    </g>
    <g transform="matrix(0,1,1,0,30.01,-26.82)">
        <path d="M168.42,136.45C167.34,136.45 166.46,137.33 166.46,138.41C166.46,139.48 167.34,140.36 168.42,140.36C169.49,140.36 170.37,139.48 170.37,138.41C170.37,137.33 169.49,136.45 168.42,136.45" style="fill:rgb(252,210,37);fill-rule:nonzero;stroke:rgb(252,210,37);stroke-width:0.71px;stroke-linecap:round;"/>
    </g>
    <g transform="matrix(0,1,1,0,134.57,-97.3)">
        <path d="M255.94,119.41C254.86,119.41 253.98,120.29 253.98,121.37C253.98,122.44 254.86,123.32 255.94,123.32C257.01,123.32 257.89,122.44 257.89,121.37C257.89,120.29 257.01,119.41 255.94,119.41" style="fill:rgb(252,210,37);fill-rule:nonzero;stroke:rgb(252,210,37);stroke-width:0.71px;stroke-linecap:round;"/>
    </g>
    <g transform="matrix(0,1,1,0,189.57,-217.34)">
        <path d="M343.46,151.93C342.38,151.93 341.5,152.81 341.5,153.89C341.5,154.96 342.38,155.84 343.46,155.84C344.53,155.84 345.41,154.96 345.41,153.89C345.41,152.81 344.53,151.93 343.46,151.93" style="fill:rgb(252,210,37);fill-rule:nonzero;stroke:rgb(252,210,37);stroke-width:0.71px;stroke-linecap:round;"/>
    </g>
    <g transform="matrix(0,1,1,0,389.32,-280.15)">
        <path d="M474.73,83.46C473.66,83.46 472.78,84.34 472.78,85.41C472.78,86.49 473.66,87.37 474.73,87.37C475.81,87.37 476.69,86.49 476.69,85.41C476.69,84.34 475.81,83.46 474.73,83.46" style="fill:rgb(252,210,37);fill-rule:nonzero;stroke:rgb(252,210,37);stroke-width:0.71px;stroke-linecap:round;"/>
    </g>
    <g transform="matrix(0,1,1,0,-139.88,22.07)">
        <path d="M59.03,196.95C57.95,196.95 57.07,197.83 57.07,198.9C57.07,199.98 57.95,200.86 59.03,200.86C60.1,200.86 60.98,199.98 60.98,198.9C60.98,197.83 60.1,196.95 59.03,196.95" style="fill:rgb(21,7,137);fill-rule:nonzero;stroke:rgb(21,7,137);stroke-width:0.71px;stroke-linecap:round;"/>
    </g>
    <g transform="matrix(0,1,1,0,-98.115,20.085)">
        <path d="M80.905,177.065C79.825,177.065 78.945,177.935 78.945,179.015C78.945,180.095 79.825,180.965 80.905,180.965C81.975,180.965 82.855,180.095 82.855,179.015C82.855,177.935 81.975,177.065 80.905,177.065" style="fill:rgb(21,7,137);fill-rule:nonzero;stroke:rgb(21,7,137);stroke-width:0.71px;stroke-linecap:round;"/>
    </g>
    <g transform="matrix(0,1,1,0,-46.2,-15.51)">
        <path d="M124.66,168.9C123.58,168.9 122.7,169.78 122.7,170.86C122.7,171.93 123.58,172.81 124.66,172.81C125.73,172.81 126.61,171.93 126.61,170.86C126.61,169.78 125.73,168.9 124.66,168.9" style="fill:rgb(21,7,137);fill-rule:nonzero;stroke:rgb(21,7,137);stroke-width:0.71px;stroke-linecap:round;"/>
    </g>
    <g transform="matrix(0,1,1,0,-1.43,-58.26)">
        <path d="M168.41,167.89C167.34,167.89 166.46,168.77 166.46,169.85C166.46,170.92 167.34,171.8 168.41,171.8C169.49,171.8 170.37,170.92 170.37,169.85C170.37,168.77 169.49,167.89 168.41,167.89" style="fill:rgb(21,7,137);fill-rule:nonzero;stroke:rgb(21,7,137);stroke-width:0.71px;stroke-linecap:round;"/>
    </g>
    <g transform="matrix(0,1,1,0,89.66,-142.21)">
        <path d="M255.94,164.32C254.86,164.32 253.98,165.2 253.98,166.28C253.98,167.35 254.86,168.23 255.94,168.23C257.01,168.23 257.89,167.35 257.89,166.28C257.89,165.2 257.01,164.32 255.94,164.32" style="fill:rgb(21,7,137);fill-rule:nonzero;stroke:rgb(21,7,137);stroke-width:0.71px;stroke-linecap:round;"/>
    </g>
    <g transform="matrix(0,1,1,0,169.2,-237.71)">
        <path d="M343.46,172.3C342.38,172.3 341.5,173.18 341.5,174.26C341.5,175.33 342.38,176.21 343.46,176.21C344.53,176.21 345.41,175.33 345.41,174.26C345.41,173.18 344.53,172.3 343.46,172.3" style="fill:rgb(21,7,137);fill-rule:nonzero;stroke:rgb(21,7,137);stroke-width:0.71px;stroke-linecap:round;"/>
    </g>
    <g transform="matrix(0,1,1,0,356.6,-312.87)">
        <path d="M474.73,116.18C473.66,116.18 472.78,117.06 472.78,118.13C472.78,119.21 473.66,120.09 474.73,120.09C475.81,120.09 476.69,119.21 476.69,118.13C476.69,117.06 475.81,116.18 474.73,116.18" style="fill:rgb(21,7,137);fill-rule:nonzero;stroke:rgb(21,7,137);stroke-width:0.71px;stroke-linecap:round;"/>
    </g>
    <g transform="matrix(0,1,1,0,-167.6,-5.65)">
        <path d="M59.03,224.67C57.95,224.67 57.07,225.55 57.07,226.62C57.07,227.7 57.95,228.58 59.03,228.58C60.1,228.58 60.98,227.7 60.98,226.62C60.98,225.55 60.1,224.67 59.03,224.67" style="fill:rgb(193,59,130);fill-rule:nonzero;stroke:rgb(193,59,130);stroke-width:0.71px;stroke-linecap:round;"/>
    </g>
    <g transform="matrix(0,1,1,0,-110.375,7.825)">
        <path d="M80.905,189.325C79.825,189.325 78.945,190.195 78.945,191.275C78.945,192.355 79.825,193.225 80.905,193.225C81.975,193.225 82.855,192.355 82.855,191.275C82.855,190.195 81.975,189.325 80.905,189.325" style="fill:rgb(193,59,130);fill-rule:nonzero;stroke:rgb(193,59,130);stroke-width:0.71px;stroke-linecap:round;"/>
    </g>
    <g transform="matrix(0,1,1,0,-53.35,-22.66)">
        <path d="M124.66,176.05C123.58,176.05 122.7,176.93 122.7,178.01C122.7,179.08 123.58,179.96 124.66,179.96C125.73,179.96 126.61,179.08 126.61,178.01C126.61,176.93 125.73,176.05 124.66,176.05" style="fill:rgb(193,59,130);fill-rule:nonzero;stroke:rgb(193,59,130);stroke-width:0.71px;stroke-linecap:round;"/>
    </g>
    <g transform="matrix(0,1,1,0,19.78,-37.05)">
        <path d="M168.42,146.68C167.34,146.68 166.46,147.56 166.46,148.64C166.46,149.71 167.34,150.59 168.42,150.59C169.49,150.59 170.37,149.71 170.37,148.64C170.37,147.56 169.49,146.68 168.42,146.68" style="fill:rgb(193,59,130);fill-rule:nonzero;stroke:rgb(193,59,130);stroke-width:0.71px;stroke-linecap:round;"/>
    </g>
    <g transform="matrix(0,1,1,0,89.75,-142.12)">
        <path d="M255.93,164.23C254.86,164.23 253.98,165.11 253.98,166.19C253.98,167.26 254.86,168.14 255.93,168.14C257.01,168.14 257.89,167.26 257.89,166.19C257.89,165.11 257.01,164.23 255.93,164.23" style="fill:rgb(193,59,130);fill-rule:nonzero;stroke:rgb(193,59,130);stroke-width:0.71px;stroke-linecap:round;"/>
    </g>
    <g transform="matrix(0,1,1,0,154.42,-252.49)">
        <path d="M343.46,187.08C342.38,187.08 341.5,187.96 341.5,189.04C341.5,190.11 342.38,190.99 343.46,190.99C344.53,190.99 345.41,190.11 345.41,189.04C345.41,187.96 344.53,187.08 343.46,187.08" style="fill:rgb(193,59,130);fill-rule:nonzero;stroke:rgb(193,59,130);stroke-width:0.71px;stroke-linecap:round;"/>
    </g>
    <g transform="matrix(0,1,1,0,311.8,-357.67)">
        <path d="M474.73,160.98C473.66,160.98 472.78,161.86 472.78,162.93C472.78,164.01 473.66,164.89 474.73,164.89C475.81,164.89 476.69,164.01 476.69,162.93C476.69,161.86 475.81,160.98 474.73,160.98" style="fill:rgb(193,59,130);fill-rule:nonzero;stroke:rgb(193,59,130);stroke-width:0.71px;stroke-linecap:round;"/>
    </g>
    <g transform="matrix(0,1,1,0,-197.61,-35.66)">
        <path d="M59.02,254.68C57.95,254.68 57.07,255.56 57.07,256.63C57.07,257.71 57.95,258.59 59.02,258.59C60.1,258.59 60.98,257.71 60.98,256.63C60.98,255.56 60.1,254.68 59.02,254.68" style="fill:rgb(193,59,130);fill-rule:nonzero;stroke:rgb(193,59,130);stroke-width:0.71px;stroke-linecap:round;"/>
    </g>
    <g transform="matrix(0,1,1,0,-126.865,-8.665)">
        <path d="M80.905,205.815C79.825,205.815 78.945,206.685 78.945,207.765C78.945,208.845 79.825,209.715 80.905,209.715C81.975,209.715 82.855,208.845 82.855,207.765C82.855,206.685 81.975,205.815 80.905,205.815" style="fill:rgb(193,59,130);fill-rule:nonzero;stroke:rgb(193,59,130);stroke-width:0.71px;stroke-linecap:round;"/>
    </g>
    <g transform="matrix(0,1,1,0,-21.93,8.76)">
        <path d="M124.66,144.63C123.58,144.63 122.7,145.51 122.7,146.59C122.7,147.66 123.58,148.54 124.66,148.54C125.73,148.54 126.61,147.66 126.61,146.59C126.61,145.51 125.73,144.63 124.66,144.63" style="fill:rgb(193,59,130);fill-rule:nonzero;stroke:rgb(193,59,130);stroke-width:0.71px;stroke-linecap:round;"/>
    </g>
    <g transform="matrix(0,1,1,0,25.68,-31.15)">
        <path d="M168.41,140.78C167.34,140.78 166.46,141.66 166.46,142.74C166.46,143.81 167.34,144.69 168.41,144.69C169.49,144.69 170.37,143.81 170.37,142.74C170.37,141.66 169.49,140.78 168.41,140.78" style="fill:rgb(193,59,130);fill-rule:nonzero;stroke:rgb(193,59,130);stroke-width:0.71px;stroke-linecap:round;"/>
    </g>
    <g transform="matrix(0,1,1,0,104.775,-127.095)">
        <path d="M255.935,149.205C254.855,149.205 253.985,150.085 253.985,151.165C253.985,152.235 254.855,153.115 255.935,153.115C257.015,153.115 257.885,152.235 257.885,151.165C257.885,150.085 257.015,149.205 255.935,149.205" style="fill:rgb(193,59,130);fill-rule:nonzero;stroke:rgb(193,59,130);stroke-width:0.71px;stroke-linecap:round;"/>
    </g>
    <g transform="matrix(0,1,1,0,184.08,-222.83)">
        <path d="M343.45,157.42C342.38,157.42 341.5,158.3 341.5,159.38C341.5,160.45 342.38,161.33 343.45,161.33C344.53,161.33 345.41,160.45 345.41,159.38C345.41,158.3 344.53,157.42 343.45,157.42" style="fill:rgb(193,59,130);fill-rule:nonzero;stroke:rgb(193,59,130);stroke-width:0.71px;stroke-linecap:round;"/>
    </g>
    <g transform="matrix(0,1,1,0,368.88,-300.59)">
        <path d="M474.74,103.9C473.66,103.9 472.78,104.78 472.78,105.85C472.78,106.93 473.66,107.81 474.74,107.81C475.81,107.81 476.69,106.93 476.69,105.85C476.69,104.78 475.81,103.9 474.74,103.9" style="fill:rgb(193,59,130);fill-rule:nonzero;stroke:rgb(193,59,130);stroke-width:0.71px;stroke-linecap:round;"/>
    </g>
    <g transform="matrix(0,1,1,0,-71.95,90)">
        <path d="M59.02,129.02C57.95,129.02 57.07,129.9 57.07,130.97C57.07,132.05 57.95,132.93 59.02,132.93C60.1,132.93 60.98,132.05 60.98,130.97C60.98,129.9 60.1,129.02 59.02,129.02" style="fill:rgb(252,210,37);fill-rule:nonzero;stroke:rgb(252,210,37);stroke-width:0.71px;stroke-linecap:round;"/>
    </g>
    <g transform="matrix(0,1,1,0,-112.025,6.175)">
        <path d="M80.895,190.975C79.825,190.975 78.945,191.845 78.945,192.925C78.945,194.005 79.825,194.875 80.895,194.875C81.975,194.875 82.855,194.005 82.855,192.925C82.855,191.845 81.975,190.975 80.895,190.975" style="fill:rgb(252,210,37);fill-rule:nonzero;stroke:rgb(252,210,37);stroke-width:0.71px;stroke-linecap:round;"/>
    </g>
    <g transform="matrix(0,1,1,0,-28.59,2.1)">
        <path d="M124.65,151.29C123.58,151.29 122.7,152.17 122.7,153.25C122.7,154.32 123.58,155.2 124.65,155.2C125.73,155.2 126.61,154.32 126.61,153.25C126.61,152.17 125.73,151.29 124.65,151.29" style="fill:rgb(252,210,37);fill-rule:nonzero;stroke:rgb(252,210,37);stroke-width:0.71px;stroke-linecap:round;"/>
    </g>
    <g transform="matrix(0,1,1,0,-19.39,-76.22)">
        <path d="M168.42,185.85C167.34,185.85 166.46,186.73 166.46,187.81C166.46,188.88 167.34,189.76 168.42,189.76C169.49,189.76 170.37,188.88 170.37,187.81C170.37,186.73 169.49,185.85 168.42,185.85" style="fill:rgb(252,210,37);fill-rule:nonzero;stroke:rgb(252,210,37);stroke-width:0.71px;stroke-linecap:round;"/>
    </g>
    <g transform="matrix(0,1,1,0,71.75,-160.12)">
        <path d="M255.94,182.23C254.86,182.23 253.98,183.11 253.98,184.19C253.98,185.26 254.86,186.14 255.94,186.14C257.01,186.14 257.89,185.26 257.89,184.19C257.89,183.11 257.01,182.23 255.94,182.23" style="fill:rgb(252,210,37);fill-rule:nonzero;stroke:rgb(252,210,37);stroke-width:0.71px;stroke-linecap:round;"/>
    </g>
    <g transform="matrix(0,1,1,0,173.54,-233.37)">
        <path d="M343.46,167.96C342.38,167.96 341.5,168.84 341.5,169.92C341.5,170.99 342.38,171.87 343.46,171.87C344.53,171.87 345.41,170.99 345.41,169.92C345.41,168.84 344.53,167.96 343.46,167.96" style="fill:rgb(252,210,37);fill-rule:nonzero;stroke:rgb(252,210,37);stroke-width:0.71px;stroke-linecap:round;"/>
    </g>
    <g transform="matrix(0,1,1,0,287.96,-381.51)">
        <path d="M474.73,184.82C473.66,184.82 472.78,185.7 472.78,186.77C472.78,187.85 473.66,188.73 474.73,188.73C475.81,188.73 476.69,187.85 476.69,186.77C476.69,185.7 475.81,184.82 474.73,184.82" style="fill:rgb(252,210,37);fill-rule:nonzero;stroke:rgb(252,210,37);stroke-width:0.71px;stroke-linecap:round;"/>
    </g>
    <g transform="matrix(0,1,1,0,-204.1,-42.15)">
        <path d="M59.02,261.17C57.95,261.17 57.07,262.05 57.07,263.12C57.07,264.2 57.95,265.08 59.02,265.08C60.1,265.08 60.98,264.2 60.98,263.12C60.98,262.05 60.1,261.17 59.02,261.17" style="fill:rgb(193,59,130);fill-rule:nonzero;stroke:rgb(193,59,130);stroke-width:0.71px;stroke-linecap:round;"/>
    </g>
    <g transform="matrix(0,1,1,0,-134.215,-16.015)">
        <path d="M80.905,213.165C79.825,213.165 78.945,214.035 78.945,215.115C78.945,216.195 79.825,217.065 80.905,217.065C81.975,217.065 82.855,216.195 82.855,215.115C82.855,214.035 81.975,213.165 80.905,213.165" style="fill:rgb(193,59,130);fill-rule:nonzero;stroke:rgb(193,59,130);stroke-width:0.71px;stroke-linecap:round;"/>
    </g>
    <g transform="matrix(0,1,1,0,-78.84,-48.15)">
        <path d="M124.66,201.54C123.58,201.54 122.7,202.42 122.7,203.5C122.7,204.57 123.58,205.45 124.66,205.45C125.73,205.45 126.61,204.57 126.61,203.5C126.61,202.42 125.73,201.54 124.66,201.54" style="fill:rgb(193,59,130);fill-rule:nonzero;stroke:rgb(193,59,130);stroke-width:0.71px;stroke-linecap:round;"/>
    </g>
    <g transform="matrix(0,1,1,0,-39.23,-96.06)">
        <path d="M168.42,205.69C167.34,205.69 166.46,206.57 166.46,207.65C166.46,208.72 167.34,209.6 168.42,209.6C169.49,209.6 170.37,208.72 170.37,207.65C170.37,206.57 169.49,205.69 168.42,205.69" style="fill:rgb(193,59,130);fill-rule:nonzero;stroke:rgb(193,59,130);stroke-width:0.71px;stroke-linecap:round;"/>
    </g>
    <g transform="matrix(0,1,1,0,56.93,-174.94)">
        <path d="M255.94,197.05C254.86,197.05 253.98,197.93 253.98,199.01C253.98,200.08 254.86,200.96 255.94,200.96C257.01,200.96 257.89,200.08 257.89,199.01C257.89,197.93 257.01,197.05 255.94,197.05" style="fill:rgb(193,59,130);fill-rule:nonzero;stroke:rgb(193,59,130);stroke-width:0.71px;stroke-linecap:round;"/>
    </g>
    <g transform="matrix(0,1,1,0,144.48,-262.43)">
        <path d="M343.46,197.02C342.38,197.02 341.5,197.9 341.5,198.98C341.5,200.05 342.38,200.93 343.46,200.93C344.53,200.93 345.41,200.05 345.41,198.98C345.41,197.9 344.53,197.02 343.46,197.02" style="fill:rgb(193,59,130);fill-rule:nonzero;stroke:rgb(193,59,130);stroke-width:0.71px;stroke-linecap:round;"/>
    </g>
    <g transform="matrix(0,1,1,0,329.34,-340.13)">
        <path d="M474.74,143.44C473.66,143.44 472.78,144.32 472.78,145.39C472.78,146.47 473.66,147.35 474.74,147.35C475.81,147.35 476.69,146.47 476.69,145.39C476.69,144.32 475.81,143.44 474.74,143.44" style="fill:rgb(193,59,130);fill-rule:nonzero;stroke:rgb(193,59,130);stroke-width:0.71px;stroke-linecap:round;"/>
    </g>
    <g transform="matrix(0,1,1,0,-102.79,59.16)">
        <path d="M59.03,159.86C57.95,159.86 57.07,160.74 57.07,161.81C57.07,162.89 57.95,163.77 59.03,163.77C60.1,163.77 60.98,162.89 60.98,161.81C60.98,160.74 60.1,159.86 59.03,159.86" style="fill:rgb(252,210,37);fill-rule:nonzero;stroke:rgb(252,210,37);stroke-width:0.71px;stroke-linecap:round;"/>
    </g>
    <g transform="matrix(0,1,1,0,-135.515,-17.315)">
        <path d="M80.905,214.465C79.825,214.465 78.945,215.335 78.945,216.415C78.945,217.495 79.825,218.365 80.905,218.365C81.975,218.365 82.855,217.495 82.855,216.415C82.855,215.335 81.975,214.465 80.905,214.465" style="fill:rgb(252,210,37);fill-rule:nonzero;stroke:rgb(252,210,37);stroke-width:0.71px;stroke-linecap:round;"/>
    </g>
    <g transform="matrix(0,1,1,0,-67.49,-36.8)">
        <path d="M124.66,190.19C123.58,190.19 122.7,191.07 122.7,192.15C122.7,193.22 123.58,194.1 124.66,194.1C125.73,194.1 126.61,193.22 126.61,192.15C126.61,191.07 125.73,190.19 124.66,190.19" style="fill:rgb(252,210,37);fill-rule:nonzero;stroke:rgb(252,210,37);stroke-width:0.71px;stroke-linecap:round;"/>
    </g>
    <g transform="matrix(0,1,1,0,-24.94,-81.77)">
        <path d="M168.42,191.4C167.34,191.4 166.46,192.28 166.46,193.36C166.46,194.43 167.34,195.31 168.42,195.31C169.49,195.31 170.37,194.43 170.37,193.36C170.37,192.28 169.49,191.4 168.42,191.4" style="fill:rgb(252,210,37);fill-rule:nonzero;stroke:rgb(252,210,37);stroke-width:0.71px;stroke-linecap:round;"/>
    </g>
    <g transform="matrix(0,1,1,0,48.62,-183.25)">
        <path d="M255.94,205.36C254.86,205.36 253.98,206.24 253.98,207.32C253.98,208.39 254.86,209.27 255.94,209.27C257.01,209.27 257.89,208.39 257.89,207.32C257.89,206.24 257.01,205.36 255.94,205.36" style="fill:rgb(252,210,37);fill-rule:nonzero;stroke:rgb(252,210,37);stroke-width:0.71px;stroke-linecap:round;"/>
    </g>
    <g transform="matrix(0,1,1,0,126.12,-280.79)">
        <path d="M343.45,215.38C342.38,215.38 341.5,216.26 341.5,217.34C341.5,218.41 342.38,219.29 343.45,219.29C344.53,219.29 345.41,218.41 345.41,217.34C345.41,216.26 344.53,215.38 343.45,215.38" style="fill:rgb(252,210,37);fill-rule:nonzero;stroke:rgb(252,210,37);stroke-width:0.71px;stroke-linecap:round;"/>
    </g>
    <g transform="matrix(0,1,1,0,263.26,-406.21)">
        <path d="M474.74,209.52C473.66,209.52 472.78,210.4 472.78,211.47C472.78,212.55 473.66,213.43 474.74,213.43C475.81,213.43 476.69,212.55 476.69,211.47C476.69,210.4 475.81,209.52 474.74,209.52" style="fill:rgb(252,210,37);fill-rule:nonzero;stroke:rgb(252,210,37);stroke-width:0.71px;stroke-linecap:round;"/>
    </g>
    <g transform="matrix(0,1,1,0,-102.31,59.64)">
        <path d="M59.02,159.38C57.95,159.38 57.07,160.26 57.07,161.33C57.07,162.41 57.95,163.29 59.02,163.29C60.1,163.29 60.98,162.41 60.98,161.33C60.98,160.26 60.1,159.38 59.02,159.38" style="fill:rgb(252,210,37);fill-rule:nonzero;stroke:rgb(252,210,37);stroke-width:0.71px;stroke-linecap:round;"/>
    </g>
    <g transform="matrix(0,1,1,0,-132.365,-14.165)">
        <path d="M80.905,211.315C79.825,211.315 78.945,212.185 78.945,213.265C78.945,214.345 79.825,215.215 80.905,215.215C81.975,215.215 82.855,214.345 82.855,213.265C82.855,212.185 81.975,211.315 80.905,211.315" style="fill:rgb(252,210,37);fill-rule:nonzero;stroke:rgb(252,210,37);stroke-width:0.71px;stroke-linecap:round;"/>
    </g>
    <g transform="matrix(0,1,1,0,-94.76,-64.07)">
        <path d="M124.66,217.46C123.58,217.46 122.7,218.34 122.7,219.42C122.7,220.49 123.58,221.37 124.66,221.37C125.73,221.37 126.61,220.49 126.61,219.42C126.61,218.34 125.73,217.46 124.66,217.46" style="fill:rgb(252,210,37);fill-rule:nonzero;stroke:rgb(252,210,37);stroke-width:0.71px;stroke-linecap:round;"/>
    </g>
    <g transform="matrix(0,1,1,0,-44.43,-101.26)">
        <path d="M168.41,210.89C167.34,210.89 166.46,211.77 166.46,212.85C166.46,213.92 167.34,214.8 168.41,214.8C169.49,214.8 170.37,213.92 170.37,212.85C170.37,211.77 169.49,210.89 168.41,210.89" style="fill:rgb(252,210,37);fill-rule:nonzero;stroke:rgb(252,210,37);stroke-width:0.71px;stroke-linecap:round;"/>
    </g>
    <g transform="matrix(0,1,1,0,127.72,-104.15)">
        <path d="M255.94,126.26C254.86,126.26 253.98,127.14 253.98,128.22C253.98,129.29 254.86,130.17 255.94,130.17C257.01,130.17 257.89,129.29 257.89,128.22C257.89,127.14 257.01,126.26 255.94,126.26" style="fill:rgb(252,210,37);fill-rule:nonzero;stroke:rgb(252,210,37);stroke-width:0.71px;stroke-linecap:round;"/>
    </g>
    <g transform="matrix(0,1,1,0,243.34,-163.57)">
        <path d="M343.45,98.16C342.38,98.16 341.5,99.04 341.5,100.12C341.5,101.19 342.38,102.07 343.45,102.07C344.53,102.07 345.41,101.19 345.41,100.12C345.41,99.04 344.53,98.16 343.45,98.16" style="fill:rgb(252,210,37);fill-rule:nonzero;stroke:rgb(252,210,37);stroke-width:0.71px;stroke-linecap:round;"/>
    </g>
    <g transform="matrix(0,1,1,0,439.43,-230.04)">
        <path d="M474.74,33.35C473.66,33.35 472.78,34.23 472.78,35.3C472.78,36.38 473.66,37.26 474.74,37.26C475.81,37.26 476.69,36.38 476.69,35.3C476.69,34.23 475.81,33.35 474.74,33.35" style="fill:rgb(252,210,37);fill-rule:nonzero;stroke:rgb(252,210,37);stroke-width:0.71px;stroke-linecap:round;"/>
    </g>
    <g transform="matrix(0,1,1,0,-114.92,47.03)">
        <path d="M59.02,171.99C57.95,171.99 57.07,172.87 57.07,173.94C57.07,175.02 57.95,175.9 59.02,175.9C60.1,175.9 60.98,175.02 60.98,173.94C60.98,172.87 60.1,171.99 59.02,171.99" style="fill:rgb(252,210,37);fill-rule:nonzero;stroke:rgb(252,210,37);stroke-width:0.71px;stroke-linecap:round;"/>
    </g>
    <g transform="matrix(0,1,1,0,-142.315,-24.115)">
        <path d="M80.905,221.265C79.825,221.265 78.945,222.135 78.945,223.215C78.945,224.295 79.825,225.165 80.905,225.165C81.975,225.165 82.855,224.295 82.855,223.215C82.855,222.135 81.975,221.265 80.905,221.265" style="fill:rgb(252,210,37);fill-rule:nonzero;stroke:rgb(252,210,37);stroke-width:0.71px;stroke-linecap:round;"/>
    </g>
    <g transform="matrix(0,1,1,0,-30.35,0.34)">
        <path d="M124.66,153.05C123.58,153.05 122.7,153.93 122.7,155.01C122.7,156.08 123.58,156.96 124.66,156.96C125.73,156.96 126.61,156.08 126.61,155.01C126.61,153.93 125.73,153.05 124.66,153.05" style="fill:rgb(252,210,37);fill-rule:nonzero;stroke:rgb(252,210,37);stroke-width:0.71px;stroke-linecap:round;"/>
    </g>
    <g transform="matrix(0,1,1,0,-15.87,-72.7)">
        <path d="M168.41,182.33C167.34,182.33 166.46,183.21 166.46,184.29C166.46,185.36 167.34,186.24 168.41,186.24C169.49,186.24 170.37,185.36 170.37,184.29C170.37,183.21 169.49,182.33 168.41,182.33" style="fill:rgb(252,210,37);fill-rule:nonzero;stroke:rgb(252,210,37);stroke-width:0.71px;stroke-linecap:round;"/>
    </g>
    <g transform="matrix(0,1,1,0,117.89,-113.98)">
        <path d="M255.94,136.09C254.86,136.09 253.98,136.97 253.98,138.05C253.98,139.12 254.86,140 255.94,140C257.01,140 257.89,139.12 257.89,138.05C257.89,136.97 257.01,136.09 255.94,136.09" style="fill:rgb(252,210,37);fill-rule:nonzero;stroke:rgb(252,210,37);stroke-width:0.71px;stroke-linecap:round;"/>
    </g>
    <g transform="matrix(0,1,1,0,276.465,-130.445)">
        <path d="M343.455,65.035C342.375,65.035 341.505,65.915 341.505,66.995C341.505,68.065 342.375,68.945 343.455,68.945C344.525,68.945 345.405,68.065 345.405,66.995C345.405,65.915 344.525,65.035 343.455,65.035" style="fill:rgb(252,210,37);fill-rule:nonzero;stroke:rgb(252,210,37);stroke-width:0.71px;stroke-linecap:round;"/>
    </g>
    <g transform="matrix(0,1,1,0,383.52,-285.95)">
        <path d="M474.73,89.26C473.66,89.26 472.78,90.14 472.78,91.21C472.78,92.29 473.66,93.17 474.73,93.17C475.81,93.17 476.69,92.29 476.69,91.21C476.69,90.14 475.81,89.26 474.73,89.26" style="fill:rgb(252,210,37);fill-rule:nonzero;stroke:rgb(252,210,37);stroke-width:0.71px;stroke-linecap:round;"/>
    </g>
    <g transform="matrix(0,1,1,0,-156.23,5.72)">
        <path d="M59.02,213.3C57.95,213.3 57.07,214.18 57.07,215.25C57.07,216.33 57.95,217.21 59.02,217.21C60.1,217.21 60.98,216.33 60.98,215.25C60.98,214.18 60.1,213.3 59.02,213.3" style="fill:rgb(193,59,130);fill-rule:nonzero;stroke:rgb(193,59,130);stroke-width:0.71px;stroke-linecap:round;"/>
    </g>
    <g transform="matrix(0,1,1,0,-114.055,4.145)">
        <path d="M80.905,193.005C79.825,193.005 78.945,193.875 78.945,194.955C78.945,196.035 79.825,196.905 80.905,196.905C81.975,196.905 82.855,196.035 82.855,194.955C82.855,193.875 81.975,193.005 80.905,193.005" style="fill:rgb(193,59,130);fill-rule:nonzero;stroke:rgb(193,59,130);stroke-width:0.71px;stroke-linecap:round;"/>
    </g>
    <g transform="matrix(0,1,1,0,-17.46,13.23)">
        <path d="M124.65,140.16C123.58,140.16 122.7,141.04 122.7,142.12C122.7,143.19 123.58,144.07 124.65,144.07C125.73,144.07 126.61,143.19 126.61,142.12C126.61,141.04 125.73,140.16 124.65,140.16" style="fill:rgb(193,59,130);fill-rule:nonzero;stroke:rgb(193,59,130);stroke-width:0.71px;stroke-linecap:round;"/>
    </g>
    <g transform="matrix(0,1,1,0,30.4,-26.43)">
        <path d="M168.41,136.06C167.34,136.06 166.46,136.94 166.46,138.02C166.46,139.09 167.34,139.97 168.41,139.97C169.49,139.97 170.37,139.09 170.37,138.02C170.37,136.94 169.49,136.06 168.41,136.06" style="fill:rgb(193,59,130);fill-rule:nonzero;stroke:rgb(193,59,130);stroke-width:0.71px;stroke-linecap:round;"/>
    </g>
    <g transform="matrix(0,1,1,0,113.24,-118.63)">
        <path d="M255.93,140.74C254.86,140.74 253.98,141.62 253.98,142.7C253.98,143.77 254.86,144.65 255.93,144.65C257.01,144.65 257.89,143.77 257.89,142.7C257.89,141.62 257.01,140.74 255.93,140.74" style="fill:rgb(193,59,130);fill-rule:nonzero;stroke:rgb(193,59,130);stroke-width:0.71px;stroke-linecap:round;"/>
    </g>
    <g transform="matrix(0,1,1,0,186.99,-219.92)">
        <path d="M343.46,154.51C342.38,154.51 341.5,155.39 341.5,156.47C341.5,157.54 342.38,158.42 343.46,158.42C344.53,158.42 345.41,157.54 345.41,156.47C345.41,155.39 344.53,154.51 343.46,154.51" style="fill:rgb(193,59,130);fill-rule:nonzero;stroke:rgb(193,59,130);stroke-width:0.71px;stroke-linecap:round;"/>
    </g>
    <g transform="matrix(0,1,1,0,372.36,-297.11)">
        <path d="M474.73,100.42C473.66,100.42 472.78,101.3 472.78,102.37C472.78,103.45 473.66,104.33 474.73,104.33C475.81,104.33 476.69,103.45 476.69,102.37C476.69,101.3 475.81,100.42 474.73,100.42" style="fill:rgb(193,59,130);fill-rule:nonzero;stroke:rgb(193,59,130);stroke-width:0.71px;stroke-linecap:round;"/>
    </g>
    <g transform="matrix(0,1,1,0,-146.17,15.78)">
        <path d="M59.03,203.24C57.95,203.24 57.07,204.12 57.07,205.19C57.07,206.27 57.95,207.15 59.03,207.15C60.1,207.15 60.98,206.27 60.98,205.19C60.98,204.12 60.1,203.24 59.03,203.24" style="fill:rgb(252,210,37);fill-rule:nonzero;stroke:rgb(252,210,37);stroke-width:0.71px;stroke-linecap:round;"/>
    </g>
    <g transform="matrix(0,1,1,0,-135.365,-17.165)">
        <path d="M80.905,214.315C79.825,214.315 78.945,215.185 78.945,216.265C78.945,217.345 79.825,218.215 80.905,218.215C81.975,218.215 82.855,217.345 82.855,216.265C82.855,215.185 81.975,214.315 80.905,214.315" style="fill:rgb(252,210,37);fill-rule:nonzero;stroke:rgb(252,210,37);stroke-width:0.71px;stroke-linecap:round;"/>
    </g>
    <g transform="matrix(0,1,1,0,-13.89,16.8)">
        <path d="M124.65,136.59C123.58,136.59 122.7,137.47 122.7,138.55C122.7,139.62 123.58,140.5 124.65,140.5C125.73,140.5 126.61,139.62 126.61,138.55C126.61,137.47 125.73,136.59 124.65,136.59" style="fill:rgb(252,210,37);fill-rule:nonzero;stroke:rgb(252,210,37);stroke-width:0.71px;stroke-linecap:round;"/>
    </g>
    <g transform="matrix(0,1,1,0,22.96,-33.87)">
        <path d="M168.42,143.5C167.34,143.5 166.46,144.38 166.46,145.46C166.46,146.53 167.34,147.41 168.42,147.41C169.49,147.41 170.37,146.53 170.37,145.46C170.37,144.38 169.49,143.5 168.42,143.5" style="fill:rgb(252,210,37);fill-rule:nonzero;stroke:rgb(252,210,37);stroke-width:0.71px;stroke-linecap:round;"/>
    </g>
    <g transform="matrix(0,1,1,0,84.53,-147.34)">
        <path d="M255.94,169.45C254.86,169.45 253.98,170.33 253.98,171.41C253.98,172.48 254.86,173.36 255.94,173.36C257.01,173.36 257.89,172.48 257.89,171.41C257.89,170.33 257.01,169.45 255.94,169.45" style="fill:rgb(252,210,37);fill-rule:nonzero;stroke:rgb(252,210,37);stroke-width:0.71px;stroke-linecap:round;"/>
    </g>
    <g transform="matrix(0,1,1,0,194.51,-212.4)">
        <path d="M343.46,146.99C342.38,146.99 341.5,147.87 341.5,148.95C341.5,150.02 342.38,150.9 343.46,150.9C344.53,150.9 345.41,150.02 345.41,148.95C345.41,147.87 344.53,146.99 343.46,146.99" style="fill:rgb(252,210,37);fill-rule:nonzero;stroke:rgb(252,210,37);stroke-width:0.71px;stroke-linecap:round;"/>
    </g>
    <g transform="matrix(0,1,1,0,317.41,-352.06)">
        <path d="M474.73,155.37C473.66,155.37 472.78,156.25 472.78,157.32C472.78,158.4 473.66,159.28 474.73,159.28C475.81,159.28 476.69,158.4 476.69,157.32C476.69,156.25 475.81,155.37 474.73,155.37" style="fill:rgb(252,210,37);fill-rule:nonzero;stroke:rgb(252,210,37);stroke-width:0.71px;stroke-linecap:round;"/>
    </g>
    <g transform="matrix(0,1,1,0,-151.72,10.23)">
        <path d="M59.02,208.79C57.95,208.79 57.07,209.67 57.07,210.74C57.07,211.82 57.95,212.7 59.02,212.7C60.1,212.7 60.98,211.82 60.98,210.74C60.98,209.67 60.1,208.79 59.02,208.79" style="fill:rgb(252,210,37);fill-rule:nonzero;stroke:rgb(252,210,37);stroke-width:0.71px;stroke-linecap:round;"/>
    </g>
    <g transform="matrix(0,1,1,0,-114.945,3.255)">
        <path d="M80.895,193.895C79.825,193.895 78.945,194.765 78.945,195.845C78.945,196.925 79.825,197.795 80.895,197.795C81.975,197.795 82.855,196.925 82.855,195.845C82.855,194.765 81.975,193.895 80.895,193.895" style="fill:rgb(252,210,37);fill-rule:nonzero;stroke:rgb(252,210,37);stroke-width:0.71px;stroke-linecap:round;"/>
    </g>
    <g transform="matrix(0,1,1,0,-27.04,3.65)">
        <path d="M124.65,149.74C123.58,149.74 122.7,150.62 122.7,151.7C122.7,152.77 123.58,153.65 124.65,153.65C125.73,153.65 126.61,152.77 126.61,151.7C126.61,150.62 125.73,149.74 124.65,149.74" style="fill:rgb(252,210,37);fill-rule:nonzero;stroke:rgb(252,210,37);stroke-width:0.71px;stroke-linecap:round;"/>
    </g>
    <g transform="matrix(0,1,1,0,-5.39,-62.22)">
        <path d="M168.42,171.85C167.34,171.85 166.46,172.73 166.46,173.81C166.46,174.88 167.34,175.76 168.42,175.76C169.49,175.76 170.37,174.88 170.37,173.81C170.37,172.73 169.49,171.85 168.42,171.85" style="fill:rgb(252,210,37);fill-rule:nonzero;stroke:rgb(252,210,37);stroke-width:0.71px;stroke-linecap:round;"/>
    </g>
    <g transform="matrix(0,1,1,0,118.83,-113.04)">
        <path d="M255.93,135.15C254.86,135.15 253.98,136.03 253.98,137.11C253.98,138.18 254.86,139.06 255.93,139.06C257.01,139.06 257.89,138.18 257.89,137.11C257.89,136.03 257.01,135.15 255.93,135.15" style="fill:rgb(252,210,37);fill-rule:nonzero;stroke:rgb(252,210,37);stroke-width:0.71px;stroke-linecap:round;"/>
    </g>
    <g transform="matrix(0,1,1,0,179.23,-227.68)">
        <path d="M343.46,162.27C342.38,162.27 341.5,163.15 341.5,164.23C341.5,165.3 342.38,166.18 343.46,166.18C344.53,166.18 345.41,165.3 345.41,164.23C345.41,163.15 344.53,162.27 343.46,162.27" style="fill:rgb(252,210,37);fill-rule:nonzero;stroke:rgb(252,210,37);stroke-width:0.71px;stroke-linecap:round;"/>
    </g>
    <g transform="matrix(0,1,1,0,364.04,-305.43)">
        <path d="M474.73,108.74C473.66,108.74 472.78,109.62 472.78,110.69C472.78,111.77 473.66,112.65 474.73,112.65C475.81,112.65 476.69,111.77 476.69,110.69C476.69,109.62 475.81,108.74 474.73,108.74" style="fill:rgb(252,210,37);fill-rule:nonzero;stroke:rgb(252,210,37);stroke-width:0.71px;stroke-linecap:round;"/>
    </g>
    <g transform="matrix(0,1,1,0,-116.905,45.045)">
        <path d="M59.025,173.975C57.945,173.975 57.075,174.855 57.075,175.925C57.075,177.005 57.945,177.885 59.025,177.885C60.105,177.885 60.975,177.005 60.975,175.925C60.975,174.855 60.105,173.975 59.025,173.975" style="fill:rgb(21,7,137);fill-rule:nonzero;stroke:rgb(21,7,137);stroke-width:0.71px;stroke-linecap:round;"/>
    </g>
    <g transform="matrix(0,1,1,0,-124.085,-5.885)">
        <path d="M80.895,203.035C79.825,203.035 78.945,203.905 78.945,204.985C78.945,206.065 79.825,206.935 80.895,206.935C81.975,206.935 82.855,206.065 82.855,204.985C82.855,203.905 81.975,203.035 80.895,203.035" style="fill:rgb(21,7,137);fill-rule:nonzero;stroke:rgb(21,7,137);stroke-width:0.71px;stroke-linecap:round;"/>
    </g>
    <g transform="matrix(0,1,1,0,-31.67,-0.98)">
        <path d="M124.66,154.37C123.58,154.37 122.7,155.25 122.7,156.33C122.7,157.4 123.58,158.28 124.66,158.28C125.73,158.28 126.61,157.4 126.61,156.33C126.61,155.25 125.73,154.37 124.66,154.37" style="fill:rgb(21,7,137);fill-rule:nonzero;stroke:rgb(21,7,137);stroke-width:0.71px;stroke-linecap:round;"/>
    </g>
    <g transform="matrix(0,1,1,0,22.15,-34.68)">
        <path d="M168.41,144.31C167.34,144.31 166.46,145.19 166.46,146.27C166.46,147.34 167.34,148.22 168.41,148.22C169.49,148.22 170.37,147.34 170.37,146.27C170.37,145.19 169.49,144.31 168.41,144.31" style="fill:rgb(21,7,137);fill-rule:nonzero;stroke:rgb(21,7,137);stroke-width:0.71px;stroke-linecap:round;"/>
    </g>
    <g transform="matrix(0,1,1,0,139.62,-92.25)">
        <path d="M255.93,114.36C254.86,114.36 253.98,115.24 253.98,116.32C253.98,117.39 254.86,118.27 255.93,118.27C257.01,118.27 257.89,117.39 257.89,116.32C257.89,115.24 257.01,114.36 255.93,114.36" style="fill:rgb(21,7,137);fill-rule:nonzero;stroke:rgb(21,7,137);stroke-width:0.71px;stroke-linecap:round;"/>
    </g>
    <g transform="matrix(0,1,1,0,184.77,-222.14)">
        <path d="M343.45,156.73C342.38,156.73 341.5,157.61 341.5,158.69C341.5,159.76 342.38,160.64 343.45,160.64C344.53,160.64 345.41,159.76 345.41,158.69C345.41,157.61 344.53,156.73 343.45,156.73" style="fill:rgb(21,7,137);fill-rule:nonzero;stroke:rgb(21,7,137);stroke-width:0.71px;stroke-linecap:round;"/>
    </g>
    <g transform="matrix(0,1,1,0,329.44,-340.03)">
        <path d="M474.74,143.34C473.66,143.34 472.78,144.22 472.78,145.29C472.78,146.37 473.66,147.25 474.74,147.25C475.81,147.25 476.69,146.37 476.69,145.29C476.69,144.22 475.81,143.34 474.74,143.34" style="fill:rgb(21,7,137);fill-rule:nonzero;stroke:rgb(21,7,137);stroke-width:0.71px;stroke-linecap:round;"/>
    </g>
    <g transform="matrix(0,1,1,0,-109.63,52.32)">
        <path d="M59.02,166.7C57.95,166.7 57.07,167.58 57.07,168.65C57.07,169.73 57.95,170.61 59.02,170.61C60.1,170.61 60.98,169.73 60.98,168.65C60.98,167.58 60.1,166.7 59.02,166.7" style="fill:rgb(252,210,37);fill-rule:nonzero;stroke:rgb(252,210,37);stroke-width:0.71px;stroke-linecap:round;"/>
    </g>
    <g transform="matrix(0,1,1,0,-121.715,-3.515)">
        <path d="M80.905,200.665C79.825,200.665 78.945,201.535 78.945,202.615C78.945,203.695 79.825,204.565 80.905,204.565C81.975,204.565 82.855,203.695 82.855,202.615C82.855,201.535 81.975,200.665 80.905,200.665" style="fill:rgb(252,210,37);fill-rule:nonzero;stroke:rgb(252,210,37);stroke-width:0.71px;stroke-linecap:round;"/>
    </g>
    <g transform="matrix(0,1,1,0,-39.55,-8.86)">
        <path d="M124.66,162.25C123.58,162.25 122.7,163.13 122.7,164.21C122.7,165.28 123.58,166.16 124.66,166.16C125.73,166.16 126.61,165.28 126.61,164.21C126.61,163.13 125.73,162.25 124.66,162.25" style="fill:rgb(252,210,37);fill-rule:nonzero;stroke:rgb(252,210,37);stroke-width:0.71px;stroke-linecap:round;"/>
    </g>
    <g transform="matrix(0,1,1,0,20.28,-36.55)">
        <path d="M168.42,146.18C167.34,146.18 166.46,147.06 166.46,148.14C166.46,149.21 167.34,150.09 168.42,150.09C169.49,150.09 170.37,149.21 170.37,148.14C170.37,147.06 169.49,146.18 168.42,146.18" style="fill:rgb(252,210,37);fill-rule:nonzero;stroke:rgb(252,210,37);stroke-width:0.71px;stroke-linecap:round;"/>
    </g>
    <g transform="matrix(0,1,1,0,130.88,-100.99)">
        <path d="M255.93,123.1C254.86,123.1 253.98,123.98 253.98,125.06C253.98,126.13 254.86,127.01 255.93,127.01C257.01,127.01 257.89,126.13 257.89,125.06C257.89,123.98 257.01,123.1 255.93,123.1" style="fill:rgb(252,210,37);fill-rule:nonzero;stroke:rgb(252,210,37);stroke-width:0.71px;stroke-linecap:round;"/>
    </g>
    <g transform="matrix(0,1,1,0,174.27,-232.64)">
        <path d="M343.46,167.23C342.38,167.23 341.5,168.11 341.5,169.19C341.5,170.26 342.38,171.14 343.46,171.14C344.53,171.14 345.41,170.26 345.41,169.19C345.41,168.11 344.53,167.23 343.46,167.23" style="fill:rgb(252,210,37);fill-rule:nonzero;stroke:rgb(252,210,37);stroke-width:0.71px;stroke-linecap:round;"/>
    </g>
    <g transform="matrix(0,1,1,0,319.29,-350.18)">
        <path d="M474.73,153.49C473.66,153.49 472.78,154.37 472.78,155.44C472.78,156.52 473.66,157.4 474.73,157.4C475.81,157.4 476.69,156.52 476.69,155.44C476.69,154.37 475.81,153.49 474.73,153.49" style="fill:rgb(252,210,37);fill-rule:nonzero;stroke:rgb(252,210,37);stroke-width:0.71px;stroke-linecap:round;"/>
    </g>
    <g transform="matrix(1,0,0,1,0,-34.69)">
        <path d="M59.02,127.01L64.28,127.77L69.54,128.54L74.81,129.31L85.33,130.85L90.59,131.61L95.86,132.38L111.64,134.69L116.9,135.45L122.17,136.22L137.95,138.53L143.22,139.29L164.26,142.37L169.53,143.13L185.31,145.44L190.58,146.21L195.84,146.97L211.62,149.28L216.89,150.05L222.15,150.81L232.67,152.35L237.94,153.12L243.2,153.89L248.46,154.65L258.98,156.19L264.25,156.96L269.51,157.73L274.77,158.49L280.03,159.26L285.3,160.03L295.82,161.57L301.08,162.33L306.34,163.1L311.61,163.87L322.13,165.41L327.39,166.17L332.66,166.94L348.44,169.25L353.7,170.01L358.97,170.78L374.75,173.09L380.02,173.85L401.06,176.93L406.33,177.69L427.37,180.77L432.64,181.54L437.9,182.3L448.42,183.84L453.69,184.61L458.95,185.38L464.21,186.14L474.73,187.68" style="fill:none;fill-rule:nonzero;stroke:rgb(252,210,37);stroke-width:2.13px;"/>
    </g>
    <g transform="matrix(1,0,0,1,0,-55.71)">
        <path d="M59.02,130.78L69.54,132.66L74.81,133.6L85.33,135.48L90.59,136.41L95.86,137.35L116.9,141.11L122.17,142.05L127.43,142.99L132.69,143.92L137.95,144.86L143.22,145.8L164.26,149.56L169.53,150.49L185.31,153.31L190.58,154.25L201.1,156.13L206.36,157.06L211.62,158L216.89,158.94L232.67,161.76L237.94,162.7L243.2,163.63L258.98,166.45L264.25,167.39L274.77,169.27L280.03,170.2L285.3,171.14L306.34,174.9L311.61,175.84L316.87,176.78L322.13,177.71L327.39,178.65L332.66,179.59L353.7,183.35L358.97,184.28L374.75,187.1L380.02,188.04L390.54,189.92L395.8,190.85L401.06,191.79L406.33,192.73L427.37,196.49L432.64,197.42L448.42,200.24L453.69,201.18L469.47,204L474.73,204.93" style="fill:none;fill-rule:nonzero;stroke:rgb(193,59,130);stroke-width:2.13px;"/>
    </g>
    <g transform="matrix(1,0,0,1,0,-33.87)">
        <path d="M59.02,132.75L64.28,133.36L69.54,133.98L74.81,134.59L85.33,135.81L90.59,136.43L95.86,137.04L111.64,138.87L116.9,139.49L122.17,140.1L132.69,141.32L137.95,141.94L143.22,142.55L159,144.38L164.26,145L169.53,145.61L180.05,146.83L185.31,147.45L190.58,148.06L201.1,149.28L206.36,149.9L211.62,150.51L216.89,151.12L227.41,152.34L232.67,152.96L237.94,153.57L248.46,154.79L253.72,155.41L258.98,156.02L264.25,156.63L274.77,157.85L280.03,158.47L285.3,159.08L295.82,160.3L301.08,160.92L306.34,161.53L311.61,162.14L322.13,163.36L327.39,163.98L332.66,164.59L343.18,165.81L348.44,166.43L353.7,167.04L358.97,167.65L369.49,168.87L374.75,169.49L380.02,170.1L390.54,171.32L395.8,171.94L401.06,172.55L406.33,173.16L416.85,174.38L422.11,175L427.37,175.61L432.64,176.22L437.9,176.83L443.16,177.45L448.42,178.06L453.69,178.67L464.21,179.89L469.47,180.51L474.73,181.12" style="fill:none;fill-rule:nonzero;stroke:rgb(21,7,137);stroke-width:2.13px;"/>
    </g>
    <g transform="matrix(1,0,0,1,0,164.78)">
        <path d="M35.49,57.61L38.23,57.61" style="fill:none;fill-rule:nonzero;stroke:rgb(51,51,51);stroke-width:1.07px;"/>
    </g>
    <g transform="matrix(1,0,0,1,0,17.32)">
        <path d="M35.49,131.34L38.23,131.34" style="fill:none;fill-rule:nonzero;stroke:rgb(51,51,51);stroke-width:1.07px;"/>
    </g>
    <g transform="matrix(1,0,0,1,0,-130.14)">
        <path d="M35.49,205.07L38.23,205.07" style="fill:none;fill-rule:nonzero;stroke:rgb(51,51,51);stroke-width:1.07px;"/>
    </g>
    <g transform="matrix(0,-1,-1,0,150.85,385.77)">
        <path d="M126.94,22.54L129.68,22.54" style="fill:none;fill-rule:nonzero;stroke:rgb(51,51,51);stroke-width:1.07px;"/>
    </g>
    <g transform="matrix(0,-1,-1,0,242.01,476.93)">
        <path d="M218.1,22.54L220.84,22.54" style="fill:none;fill-rule:nonzero;stroke:rgb(51,51,51);stroke-width:1.07px;"/>
    </g>
    <g transform="matrix(0,-1,-1,0,333.18,568.1)">
        <path d="M309.27,22.54L312.01,22.54" style="fill:none;fill-rule:nonzero;stroke:rgb(51,51,51);stroke-width:1.07px;"/>
    </g>
    <g transform="matrix(0,-1,-1,0,424.34,659.26)">
        <path d="M400.43,22.54L403.17,22.54" style="fill:none;fill-rule:nonzero;stroke:rgb(51,51,51);stroke-width:1.07px;"/>
    </g>
    <g transform="matrix(0,-1,-1,0,515.51,750.43)">
        <path d="M491.6,22.54L494.34,22.54" style="fill:none;fill-rule:nonzero;stroke:rgb(51,51,51);stroke-width:1.07px;"/>
    </g>
    <g transform="matrix(1,0,0,1,0,118.281)">
        <rect x="95.639" y="41.56" width="127.259" height="78.6" style="fill:white;"/>
    </g>
    <text x="16.54px" y="225.055px" style="font-family:'Helvetica';font-size:11px;fill:rgb(77,77,77);">-0.1</text>
    <text x="19.79px" y="151.325px" style="font-family:'Helvetica';font-size:11px;fill:rgb(77,77,77);">0.0</text>
    <text x="19.79px" y="77.595px" style="font-family:'Helvetica';font-size:11px;fill:rgb(77,77,77);">0.1</text>
    <text x="121.3px" y="269.632px" style="font-family:'Helvetica';font-size:12px;fill:rgb(77,77,77);">25</text>
    <text x="212.47px" y="269.632px" style="font-family:'Helvetica';font-size:12px;fill:rgb(77,77,77);">50</text>
    <text x="303.63px" y="269.632px" style="font-family:'Helvetica';font-size:12px;fill:rgb(77,77,77);">75</text>
    <text x="392.3px" y="269.632px" style="font-family:'Helvetica';font-size:12px;fill:rgb(77,77,77);">100</text>
    <g>
        <text x="483.46px" y="269.632px" style="font-family:'Helvetica';font-size:12px;fill:rgb(77,77,77);">125</text>
        <text x="261.35px" y="273.711px" style="font-family:'Helvetica';font-size:14px;">T</text>
    </g>
    <g transform="matrix(0,-1,1,0,0,0)">
        <text x="-142.304px" y="12.442px" style="font-family:'Helvetica-Bold', 'Helvetica';font-weight:700;font-size:13px;">R squared</text>
    </g>
    <g>
        <text x="101.119px" y="174.457px" style="font-family:'Helvetica-Bold', 'Helvetica';font-weight:700;font-size:11px;">predictor persistence</text>
        <text x="123.879px" y="193.017px" style="font-family:'Helvetica';font-size:9px;">high</text>
        <text x="123.879px" y="210.297px" style="font-family:'Helvetica';font-size:9px;">l</text>
        <text x="125.877px" y="210.297px" style="font-family:'Helvetica';font-size:9px;">o<tspan x="130.746px " y="210.297px ">w</tspan></text>
        <text x="123.879px" y="227.577px" style="font-family:'Helvetica';font-size:9px;">medium</text>
    </g>
    <g transform="matrix(1,0,0,1,0,99.5206)">
        <rect x="101.119" y="81.6" width="17.28" height="17.28" style="fill:rgb(242,242,242);"/>
    </g>
    <g transform="matrix(0,1,1,0,19.5093,80.0013)">
        <path d="M109.759,88.29C108.679,88.29 107.799,89.17 107.799,90.25C107.799,91.32 108.679,92.2 109.759,92.2C110.829,92.2 111.709,91.32 111.709,90.25C111.709,89.17 110.829,88.29 109.759,88.29" style="fill:rgb(252,210,37);fill-rule:nonzero;stroke:rgb(252,210,37);stroke-width:0.71px;stroke-linecap:round;"/>
    </g>
    <g transform="matrix(1,0,0,1,0,99.5206)">
        <path d="M102.849,90.24L116.669,90.24" style="fill:none;fill-rule:nonzero;stroke:rgb(252,210,37);stroke-width:2.13px;"/>
    </g>
    <g transform="matrix(1,0,0,1,0,134.081)">
        <rect x="101.119" y="64.32" width="17.28" height="17.28" style="fill:rgb(242,242,242);"/>
    </g>
    <g transform="matrix(0,1,1,0,36.7893,97.2813)">
        <path d="M109.759,71.01C108.679,71.01 107.799,71.89 107.799,72.97C107.799,74.04 108.679,74.92 109.759,74.92C110.829,74.92 111.709,74.04 111.709,72.97C111.709,71.89 110.829,71.01 109.759,71.01" style="fill:rgb(193,59,130);fill-rule:nonzero;stroke:rgb(193,59,130);stroke-width:0.71px;stroke-linecap:round;"/>
    </g>
    <g transform="matrix(1,0,0,1,0,134.081)">
        <path d="M102.849,72.96L116.669,72.96" style="fill:none;fill-rule:nonzero;stroke:rgb(193,59,130);stroke-width:2.13px;"/>
    </g>
    <g transform="matrix(1,0,0,1,0,168.641)">
        <rect x="101.119" y="47.04" width="17.28" height="17.28" style="fill:rgb(242,242,242);"/>
    </g>
    <g transform="matrix(0,1,1,0,54.0693,114.561)">
        <path d="M109.759,53.73C108.679,53.73 107.799,54.61 107.799,55.69C107.799,56.76 108.679,57.64 109.759,57.64C110.829,57.64 111.709,56.76 111.709,55.69C111.709,54.61 110.829,53.73 109.759,53.73" style="fill:rgb(21,7,137);fill-rule:nonzero;stroke:rgb(21,7,137);stroke-width:0.71px;stroke-linecap:round;"/>
    </g>
    <g transform="matrix(1,0,0,1,0,168.641)">
        <path d="M102.849,55.68L116.669,55.68" style="fill:none;fill-rule:nonzero;stroke:rgb(21,7,137);stroke-width:2.13px;"/>
    </g>
</svg>
